<?xml version="1.0" encoding="UTF-8" standalone="no"?><svg xmlns="http://www.w3.org/2000/svg" xmlns:xlink="http://www.w3.org/1999/xlink" contentStyleType="text/css" height="568px" preserveAspectRatio="none" style="width:1241px;height:568px;background:#FFFFFF;" version="1.1" viewBox="0 0 1241 568" width="1241px" zoomAndPan="magnify"><defs/><g><!--cluster Decopy--><g id="cluster_Decopy"><path d="M8.5,6 L67.5,6 A3.75,3.75 0 0 1 70,8.5 L77,28.2969 L1231.5,28.2969 A2.5,2.5 0 0 1 1234,30.7969 L1234,558.5 A2.5,2.5 0 0 1 1231.5,561 L8.5,561 A2.5,2.5 0 0 1 6,558.5 L6,8.5 A2.5,2.5 0 0 1 8.5,6 " fill="none" style="stroke:#000000;stroke-width:1.5;"/><line style="stroke:#000000;stroke-width:1.5;" x1="6" x2="77" y1="28.2969" y2="28.2969"/><text fill="#000000" font-family="sans-serif" font-size="14" font-weight="bold" lengthAdjust="spacing" textLength="58" x="10" y="20.9951">Decopy</text></g><!--cluster Content--><g id="cluster_Content"><path d="M546.5,256 L612.5,256 A3.75,3.75 0 0 1 615,258.5 L622,278.2969 L1207.5,278.2969 A2.5,2.5 0 0 1 1210,280.7969 L1210,534.5 A2.5,2.5 0 0 1 1207.5,537 L546.5,537 A2.5,2.5 0 0 1 544,534.5 L544,258.5 A2.5,2.5 0 0 1 546.5,256 " fill="none" style="stroke:#000000;stroke-width:1.5;"/><line style="stroke:#000000;stroke-width:1.5;" x1="544" x2="622" y1="278.2969" y2="278.2969"/><text fill="#000000" font-family="sans-serif" font-size="14" font-weight="bold" lengthAdjust="spacing" textLength="65" x="548" y="270.9951">Content</text></g><!--cluster UI--><g id="cluster_UI"><path d="M32.5,49 L49.5,49 A3.75,3.75 0 0 1 52,51.5 L59,71.2969 L468.5,71.2969 A2.5,2.5 0 0 1 471,73.7969 L471,475.5 A2.5,2.5 0 0 1 468.5,478 L32.5,478 A2.5,2.5 0 0 1 30,475.5 L30,51.5 A2.5,2.5 0 0 1 32.5,49 " fill="none" style="stroke:#000000;stroke-width:1.5;"/><line style="stroke:#000000;stroke-width:1.5;" x1="30" x2="59" y1="71.2969" y2="71.2969"/><text fill="#000000" font-family="sans-serif" font-size="14" font-weight="bold" lengthAdjust="spacing" textLength="16" x="34" y="63.9951">UI</text></g><!--cluster util--><g id="cluster_util"><path d="M802.5,99 L831.5,99 A3.75,3.75 0 0 1 834,101.5 L841,121.2969 L1004.5,121.2969 A2.5,2.5 0 0 1 1007,123.7969 L1007,229.5 A2.5,2.5 0 0 1 1004.5,232 L802.5,232 A2.5,2.5 0 0 1 800,229.5 L800,101.5 A2.5,2.5 0 0 1 802.5,99 " fill="none" style="stroke:#000000;stroke-width:1.5;"/><line style="stroke:#000000;stroke-width:1.5;" x1="800" x2="841" y1="121.2969" y2="121.2969"/><text fill="#000000" font-family="sans-serif" font-size="14" font-weight="bold" lengthAdjust="spacing" textLength="28" x="804" y="113.9951">util</text></g><!--class Decopy--><g id="elem_Decopy"><rect codeLine="77" fill="#F1F1F1" height="48" id="Decopy" rx="2.5" ry="2.5" style="stroke:#181818;stroke-width:0.5;" width="87" x="304.5" y="497"/><ellipse cx="319.5" cy="513" fill="#ADD1B2" rx="11" ry="11" style="stroke:#181818;stroke-width:1.0;"/><path d="M321.8438,508.6719 C320.9063,508.2344 320.3125,508.0938 319.4375,508.0938 C316.8125,508.0938 314.8125,510.1719 314.8125,512.8906 L314.8125,514.0156 C314.8125,516.5938 316.9219,518.4844 319.8125,518.4844 C321.0313,518.4844 322.1875,518.1875 322.9375,517.6406 C323.5156,517.2344 323.8438,516.7813 323.8438,516.3906 C323.8438,515.9375 323.4531,515.5469 322.9844,515.5469 C322.7656,515.5469 322.5625,515.625 322.375,515.8125 C321.9219,516.2969 321.9219,516.2969 321.7344,516.3906 C321.3125,516.6563 320.625,516.7813 319.8594,516.7813 C317.8125,516.7813 316.5156,515.6875 316.5156,513.9844 L316.5156,512.8906 C316.5156,511.1094 317.7656,509.7969 319.5,509.7969 C320.0781,509.7969 320.6875,509.9531 321.1563,510.2031 C321.6406,510.4844 321.8125,510.7031 321.9063,511.1094 C321.9688,511.5156 322,511.6406 322.1406,511.7656 C322.2813,511.9063 322.5156,512.0156 322.7344,512.0156 C323,512.0156 323.2656,511.875 323.4375,511.6563 C323.5469,511.5 323.5781,511.3125 323.5781,510.8906 L323.5781,509.4688 C323.5781,509.0313 323.5625,508.9063 323.4688,508.75 C323.3125,508.4844 323.0313,508.3438 322.7344,508.3438 C322.4375,508.3438 322.2344,508.4375 322.0156,508.75 L321.8438,508.6719 Z " fill="#000000"/><text fill="#000000" font-family="sans-serif" font-size="14" lengthAdjust="spacing" textLength="55" x="333.5" y="517.8467">Decopy</text><line style="stroke:#181818;stroke-width:0.5;" x1="305.5" x2="390.5" y1="529" y2="529"/><line style="stroke:#181818;stroke-width:0.5;" x1="305.5" x2="390.5" y1="537" y2="537"/></g><!--class ContentManager--><g id="elem_ContentManager"><rect codeLine="4" fill="#F1F1F1" height="80.5938" id="ContentManager" rx="2.5" ry="2.5" style="stroke:#181818;stroke-width:0.5;" width="153" x="560" y="307.5"/><ellipse cx="575" cy="323.5" fill="#ADD1B2" rx="11" ry="11" style="stroke:#181818;stroke-width:1.0;"/><path d="M577.3438,319.1719 C576.4063,318.7344 575.8125,318.5938 574.9375,318.5938 C572.3125,318.5938 570.3125,320.6719 570.3125,323.3906 L570.3125,324.5156 C570.3125,327.0938 572.4219,328.9844 575.3125,328.9844 C576.5313,328.9844 577.6875,328.6875 578.4375,328.1406 C579.0156,327.7344 579.3438,327.2813 579.3438,326.8906 C579.3438,326.4375 578.9531,326.0469 578.4844,326.0469 C578.2656,326.0469 578.0625,326.125 577.875,326.3125 C577.4219,326.7969 577.4219,326.7969 577.2344,326.8906 C576.8125,327.1563 576.125,327.2813 575.3594,327.2813 C573.3125,327.2813 572.0156,326.1875 572.0156,324.4844 L572.0156,323.3906 C572.0156,321.6094 573.2656,320.2969 575,320.2969 C575.5781,320.2969 576.1875,320.4531 576.6563,320.7031 C577.1406,320.9844 577.3125,321.2031 577.4063,321.6094 C577.4688,322.0156 577.5,322.1406 577.6406,322.2656 C577.7813,322.4063 578.0156,322.5156 578.2344,322.5156 C578.5,322.5156 578.7656,322.375 578.9375,322.1563 C579.0469,322 579.0781,321.8125 579.0781,321.3906 L579.0781,319.9688 C579.0781,319.5313 579.0625,319.4063 578.9688,319.25 C578.8125,318.9844 578.5313,318.8438 578.2344,318.8438 C577.9375,318.8438 577.7344,318.9375 577.5156,319.25 L577.3438,319.1719 Z " fill="#000000"/><text fill="#000000" font-family="sans-serif" font-size="14" lengthAdjust="spacing" textLength="121" x="589" y="328.3467">ContentManager</text><line style="stroke:#181818;stroke-width:0.5;" x1="561" x2="712" y1="339.5" y2="339.5"/><line style="stroke:#181818;stroke-width:1.0;" x1="561" x2="712" y1="347.5" y2="347.5"/><ellipse cx="571" cy="361.1484" fill="none" rx="3" ry="3" style="stroke:#038048;stroke-width:1.0;"/><text fill="#000000" font-family="sans-serif" font-size="14" lengthAdjust="spacing" text-decoration="underline" textLength="107" x="580" y="364.4951">createContent</text><ellipse cx="571" cy="377.4453" fill="none" rx="3" ry="3" style="stroke:#038048;stroke-width:1.0;"/><text fill="#000000" font-family="sans-serif" font-size="14" lengthAdjust="spacing" text-decoration="underline" textLength="49" x="580" y="380.792">output</text></g><!--class Content--><g id="elem_Content"><rect codeLine="10" fill="#F1F1F1" height="96.8906" id="Content" rx="2.5" ry="2.5" style="stroke:#181818;stroke-width:0.5;" width="111" x="581" y="423.5"/><ellipse cx="606.35" cy="439.5" fill="#A9DCDF" rx="11" ry="11" style="stroke:#181818;stroke-width:1.0;"/><path d="M608.4281,441.3125 L608.8188,442.2969 L608.4281,442.2969 C607.975,442.2969 607.8656,442.3125 607.7094,442.4219 C607.4594,442.5781 607.3031,442.8594 607.3031,443.1563 C607.3031,443.4219 607.4438,443.6719 607.6625,443.8281 C607.8031,443.9531 608.0063,444 608.4281,444 L610.7875,444 C611.1469,444 611.3656,443.9688 611.5063,443.875 C611.7563,443.7344 611.9125,443.4375 611.9125,443.1563 C611.9125,442.875 611.7719,442.625 611.5531,442.4688 C611.3813,442.3281 611.225,442.2969 610.7563,442.2969 L607.3656,434.0938 L603.6938,434.0938 C603.2406,434.0938 603.1156,434.1094 602.9594,434.2031 C602.7094,434.375 602.5531,434.6563 602.5531,434.9375 C602.5531,435.2188 602.6938,435.4688 602.9125,435.6406 C603.0844,435.75 603.2563,435.7813 603.6938,435.7813 L604.7719,435.7813 L602.1313,442.2969 C601.7094,442.2969 601.5531,442.3125 601.3969,442.4219 C601.1469,442.5781 600.9906,442.8594 600.9906,443.1563 C600.9906,443.7188 601.3656,444 602.1156,444 L604.3813,444 C604.7406,444 604.9594,443.9688 605.0844,443.875 C605.35,443.7344 605.4906,443.4375 605.4906,443.1563 C605.4906,442.875 605.3656,442.625 605.1469,442.4531 C604.975,442.3281 604.8344,442.2969 604.3813,442.2969 L603.9906,442.2969 L604.3813,441.3125 L608.4281,441.3125 Z M607.725,439.6094 L605.0531,439.6094 L606.3969,436.3438 L607.725,439.6094 Z " fill="#000000"/><text fill="#000000" font-family="sans-serif" font-size="14" font-style="italic" lengthAdjust="spacing" textLength="56" x="622.65" y="444.3467">Content</text><line style="stroke:#181818;stroke-width:0.5;" x1="582" x2="691" y1="455.5" y2="455.5"/><line style="stroke:#181818;stroke-width:1.0;" x1="582" x2="691" y1="463.5" y2="463.5"/><ellipse cx="592" cy="477.1484" fill="none" rx="3" ry="3" style="stroke:#038048;stroke-width:1.0;"/><text fill="#000000" font-family="sans-serif" font-size="14" font-style="italic" lengthAdjust="spacing" textLength="85" x="601" y="480.4951">getColumns</text><ellipse cx="592" cy="493.4453" fill="none" rx="3" ry="3" style="stroke:#038048;stroke-width:1.0;"/><text fill="#000000" font-family="sans-serif" font-size="14" font-style="italic" lengthAdjust="spacing" textLength="60" x="601" y="496.792">getRows</text><ellipse cx="592" cy="509.7422" fill="none" rx="3" ry="3" style="stroke:#038048;stroke-width:1.0;"/><text fill="#000000" font-family="sans-serif" font-size="14" font-style="italic" lengthAdjust="spacing" textLength="84" x="601" y="513.0889">getRowText</text></g><!--class TextContent--><g id="elem_TextContent"><rect codeLine="17" fill="#F1F1F1" height="113.1875" id="TextContent" rx="2.5" ry="2.5" style="stroke:#181818;stroke-width:0.5;" width="125" x="841" y="291.5"/><ellipse cx="856" cy="307.5" fill="#ADD1B2" rx="11" ry="11" style="stroke:#181818;stroke-width:1.0;"/><path d="M858.3438,303.1719 C857.4063,302.7344 856.8125,302.5938 855.9375,302.5938 C853.3125,302.5938 851.3125,304.6719 851.3125,307.3906 L851.3125,308.5156 C851.3125,311.0938 853.4219,312.9844 856.3125,312.9844 C857.5313,312.9844 858.6875,312.6875 859.4375,312.1406 C860.0156,311.7344 860.3438,311.2813 860.3438,310.8906 C860.3438,310.4375 859.9531,310.0469 859.4844,310.0469 C859.2656,310.0469 859.0625,310.125 858.875,310.3125 C858.4219,310.7969 858.4219,310.7969 858.2344,310.8906 C857.8125,311.1563 857.125,311.2813 856.3594,311.2813 C854.3125,311.2813 853.0156,310.1875 853.0156,308.4844 L853.0156,307.3906 C853.0156,305.6094 854.2656,304.2969 856,304.2969 C856.5781,304.2969 857.1875,304.4531 857.6563,304.7031 C858.1406,304.9844 858.3125,305.2031 858.4063,305.6094 C858.4688,306.0156 858.5,306.1406 858.6406,306.2656 C858.7813,306.4063 859.0156,306.5156 859.2344,306.5156 C859.5,306.5156 859.7656,306.375 859.9375,306.1563 C860.0469,306 860.0781,305.8125 860.0781,305.3906 L860.0781,303.9688 C860.0781,303.5313 860.0625,303.4063 859.9688,303.25 C859.8125,302.9844 859.5313,302.8438 859.2344,302.8438 C858.9375,302.8438 858.7344,302.9375 858.5156,303.25 L858.3438,303.1719 Z " fill="#000000"/><text fill="#000000" font-family="sans-serif" font-size="14" lengthAdjust="spacing" textLength="93" x="870" y="312.3467">TextContent</text><line style="stroke:#181818;stroke-width:0.5;" x1="842" x2="965" y1="323.5" y2="323.5"/><rect fill="none" height="6" style="stroke:#C82930;stroke-width:1.0;" width="6" x="849" y="334.1484"/><text fill="#000000" font-family="sans-serif" font-size="14" lengthAdjust="spacing" textLength="31" x="861" y="340.4951">text</text><line style="stroke:#181818;stroke-width:1.0;" x1="842" x2="965" y1="347.7969" y2="347.7969"/><ellipse cx="852" cy="361.4453" fill="none" rx="3" ry="3" style="stroke:#038048;stroke-width:1.0;"/><text fill="#000000" font-family="sans-serif" font-size="14" lengthAdjust="spacing" textLength="86" x="861" y="364.792">getColumns</text><ellipse cx="852" cy="377.7422" fill="none" rx="3" ry="3" style="stroke:#038048;stroke-width:1.0;"/><text fill="#000000" font-family="sans-serif" font-size="14" lengthAdjust="spacing" textLength="62" x="861" y="381.0889">getRows</text><ellipse cx="852" cy="394.0391" fill="none" rx="3" ry="3" style="stroke:#038048;stroke-width:1.0;"/><text fill="#000000" font-family="sans-serif" font-size="14" lengthAdjust="spacing" textLength="88" x="861" y="397.3857">getRowText</text></g><!--class Border--><g id="elem_Border"><rect codeLine="25" fill="#F1F1F1" height="64.2969" id="Border" rx="2.5" ry="2.5" style="stroke:#181818;stroke-width:0.5;" width="84" x="861.5" y="440"/><ellipse cx="877.85" cy="456" fill="#A9DCDF" rx="11" ry="11" style="stroke:#181818;stroke-width:1.0;"/><path d="M879.9281,457.8125 L880.3188,458.7969 L879.9281,458.7969 C879.475,458.7969 879.3656,458.8125 879.2094,458.9219 C878.9594,459.0781 878.8031,459.3594 878.8031,459.6563 C878.8031,459.9219 878.9438,460.1719 879.1625,460.3281 C879.3031,460.4531 879.5063,460.5 879.9281,460.5 L882.2875,460.5 C882.6469,460.5 882.8656,460.4688 883.0063,460.375 C883.2563,460.2344 883.4125,459.9375 883.4125,459.6563 C883.4125,459.375 883.2719,459.125 883.0531,458.9688 C882.8813,458.8281 882.725,458.7969 882.2563,458.7969 L878.8656,450.5938 L875.1938,450.5938 C874.7406,450.5938 874.6156,450.6094 874.4594,450.7031 C874.2094,450.875 874.0531,451.1563 874.0531,451.4375 C874.0531,451.7188 874.1938,451.9688 874.4125,452.1406 C874.5844,452.25 874.7563,452.2813 875.1938,452.2813 L876.2719,452.2813 L873.6313,458.7969 C873.2094,458.7969 873.0531,458.8125 872.8969,458.9219 C872.6469,459.0781 872.4906,459.3594 872.4906,459.6563 C872.4906,460.2188 872.8656,460.5 873.6156,460.5 L875.8813,460.5 C876.2406,460.5 876.4594,460.4688 876.5844,460.375 C876.85,460.2344 876.9906,459.9375 876.9906,459.6563 C876.9906,459.375 876.8656,459.125 876.6469,458.9531 C876.475,458.8281 876.3344,458.7969 875.8813,458.7969 L875.4906,458.7969 L875.8813,457.8125 L879.9281,457.8125 Z M879.225,456.1094 L876.5531,456.1094 L877.8969,452.8438 L879.225,456.1094 Z " fill="#000000"/><text fill="#000000" font-family="sans-serif" font-size="14" font-style="italic" lengthAdjust="spacing" textLength="49" x="892.15" y="460.8467">Border</text><line style="stroke:#181818;stroke-width:0.5;" x1="862.5" x2="944.5" y1="472" y2="472"/><polygon fill="none" points="872.5,480.6484,876.5,484.6484,872.5,488.6484,868.5,484.6484" style="stroke:#B38D22;stroke-width:1.0;"/><text fill="#000000" font-family="sans-serif" font-size="14" lengthAdjust="spacing" textLength="58" x="881.5" y="488.9951">content</text><line style="stroke:#181818;stroke-width:0.5;" x1="862.5" x2="944.5" y1="496.2969" y2="496.2969"/></g><!--class LeftBorder--><g id="elem_LeftBorder"><rect codeLine="29" fill="#F1F1F1" height="96.8906" id="LeftBorder" rx="2.5" ry="2.5" style="stroke:#181818;stroke-width:0.5;" width="114" x="1067" y="423.5"/><ellipse cx="1083.35" cy="439.5" fill="#ADD1B2" rx="11" ry="11" style="stroke:#181818;stroke-width:1.0;"/><path d="M1085.6938,435.1719 C1084.7563,434.7344 1084.1625,434.5938 1083.2875,434.5938 C1080.6625,434.5938 1078.6625,436.6719 1078.6625,439.3906 L1078.6625,440.5156 C1078.6625,443.0938 1080.7719,444.9844 1083.6625,444.9844 C1084.8813,444.9844 1086.0375,444.6875 1086.7875,444.1406 C1087.3656,443.7344 1087.6938,443.2813 1087.6938,442.8906 C1087.6938,442.4375 1087.3031,442.0469 1086.8344,442.0469 C1086.6156,442.0469 1086.4125,442.125 1086.225,442.3125 C1085.7719,442.7969 1085.7719,442.7969 1085.5844,442.8906 C1085.1625,443.1563 1084.475,443.2813 1083.7094,443.2813 C1081.6625,443.2813 1080.3656,442.1875 1080.3656,440.4844 L1080.3656,439.3906 C1080.3656,437.6094 1081.6156,436.2969 1083.35,436.2969 C1083.9281,436.2969 1084.5375,436.4531 1085.0063,436.7031 C1085.4906,436.9844 1085.6625,437.2031 1085.7563,437.6094 C1085.8188,438.0156 1085.85,438.1406 1085.9906,438.2656 C1086.1313,438.4063 1086.3656,438.5156 1086.5844,438.5156 C1086.85,438.5156 1087.1156,438.375 1087.2875,438.1563 C1087.3969,438 1087.4281,437.8125 1087.4281,437.3906 L1087.4281,435.9688 C1087.4281,435.5313 1087.4125,435.4063 1087.3188,435.25 C1087.1625,434.9844 1086.8813,434.8438 1086.5844,434.8438 C1086.2875,434.8438 1086.0844,434.9375 1085.8656,435.25 L1085.6938,435.1719 Z " fill="#000000"/><text fill="#000000" font-family="sans-serif" font-size="14" lengthAdjust="spacing" textLength="79" x="1097.65" y="444.3467">LeftBorder</text><line style="stroke:#181818;stroke-width:0.5;" x1="1068" x2="1180" y1="455.5" y2="455.5"/><line style="stroke:#181818;stroke-width:1.0;" x1="1068" x2="1180" y1="463.5" y2="463.5"/><ellipse cx="1078" cy="477.1484" fill="none" rx="3" ry="3" style="stroke:#038048;stroke-width:1.0;"/><text fill="#000000" font-family="sans-serif" font-size="14" lengthAdjust="spacing" textLength="86" x="1087" y="480.4951">getColumns</text><ellipse cx="1078" cy="493.4453" fill="none" rx="3" ry="3" style="stroke:#038048;stroke-width:1.0;"/><text fill="#000000" font-family="sans-serif" font-size="14" lengthAdjust="spacing" textLength="62" x="1087" y="496.792">getRows</text><ellipse cx="1078" cy="509.7422" fill="none" rx="3" ry="3" style="stroke:#038048;stroke-width:1.0;"/><text fill="#000000" font-family="sans-serif" font-size="14" lengthAdjust="spacing" textLength="88" x="1087" y="513.0889">getRowText</text></g><!--class UpDownBorder--><g id="elem_UpDownBorder"><rect codeLine="36" fill="#F1F1F1" height="96.8906" id="UpDownBorder" rx="2.5" ry="2.5" style="stroke:#181818;stroke-width:0.5;" width="140" x="1054" y="291.5"/><ellipse cx="1069" cy="307.5" fill="#ADD1B2" rx="11" ry="11" style="stroke:#181818;stroke-width:1.0;"/><path d="M1071.3438,303.1719 C1070.4063,302.7344 1069.8125,302.5938 1068.9375,302.5938 C1066.3125,302.5938 1064.3125,304.6719 1064.3125,307.3906 L1064.3125,308.5156 C1064.3125,311.0938 1066.4219,312.9844 1069.3125,312.9844 C1070.5313,312.9844 1071.6875,312.6875 1072.4375,312.1406 C1073.0156,311.7344 1073.3438,311.2813 1073.3438,310.8906 C1073.3438,310.4375 1072.9531,310.0469 1072.4844,310.0469 C1072.2656,310.0469 1072.0625,310.125 1071.875,310.3125 C1071.4219,310.7969 1071.4219,310.7969 1071.2344,310.8906 C1070.8125,311.1563 1070.125,311.2813 1069.3594,311.2813 C1067.3125,311.2813 1066.0156,310.1875 1066.0156,308.4844 L1066.0156,307.3906 C1066.0156,305.6094 1067.2656,304.2969 1069,304.2969 C1069.5781,304.2969 1070.1875,304.4531 1070.6563,304.7031 C1071.1406,304.9844 1071.3125,305.2031 1071.4063,305.6094 C1071.4688,306.0156 1071.5,306.1406 1071.6406,306.2656 C1071.7813,306.4063 1072.0156,306.5156 1072.2344,306.5156 C1072.5,306.5156 1072.7656,306.375 1072.9375,306.1563 C1073.0469,306 1073.0781,305.8125 1073.0781,305.3906 L1073.0781,303.9688 C1073.0781,303.5313 1073.0625,303.4063 1072.9688,303.25 C1072.8125,302.9844 1072.5313,302.8438 1072.2344,302.8438 C1071.9375,302.8438 1071.7344,302.9375 1071.5156,303.25 L1071.3438,303.1719 Z " fill="#000000"/><text fill="#000000" font-family="sans-serif" font-size="14" lengthAdjust="spacing" textLength="108" x="1083" y="312.3467">UpDownBorder</text><line style="stroke:#181818;stroke-width:0.5;" x1="1055" x2="1193" y1="323.5" y2="323.5"/><line style="stroke:#181818;stroke-width:1.0;" x1="1055" x2="1193" y1="331.5" y2="331.5"/><ellipse cx="1065" cy="345.1484" fill="none" rx="3" ry="3" style="stroke:#038048;stroke-width:1.0;"/><text fill="#000000" font-family="sans-serif" font-size="14" lengthAdjust="spacing" textLength="86" x="1074" y="348.4951">getColumns</text><ellipse cx="1065" cy="361.4453" fill="none" rx="3" ry="3" style="stroke:#038048;stroke-width:1.0;"/><text fill="#000000" font-family="sans-serif" font-size="14" lengthAdjust="spacing" textLength="62" x="1074" y="364.792">getRows</text><ellipse cx="1065" cy="377.7422" fill="none" rx="3" ry="3" style="stroke:#038048;stroke-width:1.0;"/><text fill="#000000" font-family="sans-serif" font-size="14" lengthAdjust="spacing" textLength="88" x="1074" y="381.0889">getRowText</text></g><!--class DecopyInputController--><g id="elem_DecopyInputController"><rect codeLine="46" fill="#F1F1F1" height="80.5938" id="DecopyInputController" rx="2.5" ry="2.5" style="stroke:#181818;stroke-width:0.5;" width="214" x="241" y="380.5"/><ellipse cx="263.2" cy="396.5" fill="#ADD1B2" rx="11" ry="11" style="stroke:#181818;stroke-width:1.0;"/><path d="M265.5438,392.1719 C264.6063,391.7344 264.0125,391.5938 263.1375,391.5938 C260.5125,391.5938 258.5125,393.6719 258.5125,396.3906 L258.5125,397.5156 C258.5125,400.0938 260.6219,401.9844 263.5125,401.9844 C264.7313,401.9844 265.8875,401.6875 266.6375,401.1406 C267.2156,400.7344 267.5438,400.2813 267.5438,399.8906 C267.5438,399.4375 267.1531,399.0469 266.6844,399.0469 C266.4656,399.0469 266.2625,399.125 266.075,399.3125 C265.6219,399.7969 265.6219,399.7969 265.4344,399.8906 C265.0125,400.1563 264.325,400.2813 263.5594,400.2813 C261.5125,400.2813 260.2156,399.1875 260.2156,397.4844 L260.2156,396.3906 C260.2156,394.6094 261.4656,393.2969 263.2,393.2969 C263.7781,393.2969 264.3875,393.4531 264.8563,393.7031 C265.3406,393.9844 265.5125,394.2031 265.6063,394.6094 C265.6688,395.0156 265.7,395.1406 265.8406,395.2656 C265.9813,395.4063 266.2156,395.5156 266.4344,395.5156 C266.7,395.5156 266.9656,395.375 267.1375,395.1563 C267.2469,395 267.2781,394.8125 267.2781,394.3906 L267.2781,392.9688 C267.2781,392.5313 267.2625,392.4063 267.1688,392.25 C267.0125,391.9844 266.7313,391.8438 266.4344,391.8438 C266.1375,391.8438 265.9344,391.9375 265.7156,392.25 L265.5438,392.1719 Z " fill="#000000"/><text fill="#000000" font-family="sans-serif" font-size="14" lengthAdjust="spacing" textLength="166" x="278.8" y="401.3467">DecopyInputController</text><line style="stroke:#181818;stroke-width:0.5;" x1="242" x2="454" y1="412.5" y2="412.5"/><line style="stroke:#181818;stroke-width:1.0;" x1="242" x2="454" y1="420.5" y2="420.5"/><ellipse cx="252" cy="434.1484" fill="none" rx="3" ry="3" style="stroke:#038048;stroke-width:1.0;"/><text fill="#000000" font-family="sans-serif" font-size="14" lengthAdjust="spacing" textLength="188" x="261" y="437.4951">displayDecopyInputFrame</text><ellipse cx="252" cy="450.4453" fill="none" rx="3" ry="3" style="stroke:#038048;stroke-width:1.0;"/><text fill="#000000" font-family="sans-serif" font-size="14" lengthAdjust="spacing" textLength="122" x="261" y="453.792">actionPerformed</text></g><!--class ActionListener--><g id="elem_ActionListener"><rect fill="#F1F1F1" height="48" id="ActionListener" rx="2.5" ry="2.5" style="stroke:#181818;stroke-width:0.5;" width="134" x="46" y="397"/><ellipse cx="61" cy="413" fill="#B4A7E5" rx="11" ry="11" style="stroke:#181818;stroke-width:1.0;"/><path d="M61.9531,409.7813 L63.6719,409.7813 C64.0625,409.7813 64.25,409.75 64.375,409.6719 C64.6406,409.5156 64.7813,409.2344 64.7813,408.9375 C64.7813,408.6719 64.6719,408.4063 64.4375,408.2344 C64.2656,408.125 64.125,408.0938 63.6719,408.0938 L58.5313,408.0938 C58.0938,408.0938 57.9688,408.1094 57.8125,408.2031 C57.5625,408.3594 57.4063,408.6563 57.4063,408.9375 C57.4063,409.2188 57.5469,409.4688 57.7656,409.6406 C57.9219,409.75 58.1094,409.7813 58.5313,409.7813 L60.25,409.7813 L60.25,416.2969 L58.5313,416.2969 C58.0938,416.2969 57.9688,416.3125 57.8125,416.4219 C57.5625,416.5781 57.4063,416.8594 57.4063,417.1563 C57.4063,417.4063 57.5469,417.6719 57.7656,417.8281 C57.9219,417.9531 58.125,418 58.5313,418 L63.6719,418 C64.4219,418 64.7813,417.7188 64.7813,417.1563 C64.7813,416.875 64.6719,416.625 64.4375,416.4531 C64.2656,416.3281 64.125,416.2969 63.6719,416.2969 L61.9531,416.2969 L61.9531,409.7813 Z " fill="#000000"/><text fill="#000000" font-family="sans-serif" font-size="14" font-style="italic" lengthAdjust="spacing" textLength="102" x="75" y="417.8467">ActionListener</text><line style="stroke:#181818;stroke-width:0.5;" x1="47" x2="179" y1="429" y2="429"/><line style="stroke:#181818;stroke-width:0.5;" x1="47" x2="179" y1="437" y2="437"/></g><!--class DecopyInputFrame--><g id="elem_DecopyInputFrame"><rect codeLine="52" fill="#F1F1F1" height="113.1875" id="DecopyInputFrame" rx="2.5" ry="2.5" style="stroke:#181818;stroke-width:0.5;" width="179" x="258.5" y="232.5"/><ellipse cx="277.55" cy="248.5" fill="#ADD1B2" rx="11" ry="11" style="stroke:#181818;stroke-width:1.0;"/><path d="M279.8938,244.1719 C278.9563,243.7344 278.3625,243.5938 277.4875,243.5938 C274.8625,243.5938 272.8625,245.6719 272.8625,248.3906 L272.8625,249.5156 C272.8625,252.0938 274.9719,253.9844 277.8625,253.9844 C279.0813,253.9844 280.2375,253.6875 280.9875,253.1406 C281.5656,252.7344 281.8938,252.2813 281.8938,251.8906 C281.8938,251.4375 281.5031,251.0469 281.0344,251.0469 C280.8156,251.0469 280.6125,251.125 280.425,251.3125 C279.9719,251.7969 279.9719,251.7969 279.7844,251.8906 C279.3625,252.1563 278.675,252.2813 277.9094,252.2813 C275.8625,252.2813 274.5656,251.1875 274.5656,249.4844 L274.5656,248.3906 C274.5656,246.6094 275.8156,245.2969 277.55,245.2969 C278.1281,245.2969 278.7375,245.4531 279.2063,245.7031 C279.6906,245.9844 279.8625,246.2031 279.9563,246.6094 C280.0188,247.0156 280.05,247.1406 280.1906,247.2656 C280.3313,247.4063 280.5656,247.5156 280.7844,247.5156 C281.05,247.5156 281.3156,247.375 281.4875,247.1563 C281.5969,247 281.6281,246.8125 281.6281,246.3906 L281.6281,244.9688 C281.6281,244.5313 281.6125,244.4063 281.5188,244.25 C281.3625,243.9844 281.0813,243.8438 280.7844,243.8438 C280.4875,243.8438 280.2844,243.9375 280.0656,244.25 L279.8938,244.1719 Z " fill="#000000"/><text fill="#000000" font-family="sans-serif" font-size="14" lengthAdjust="spacing" textLength="138" x="292.45" y="253.3467">DecopyInputFrame</text><line style="stroke:#181818;stroke-width:0.5;" x1="259.5" x2="436.5" y1="264.5" y2="264.5"/><rect fill="none" height="6" style="stroke:#C82930;stroke-width:1.0;" width="6" x="266.5" y="275.1484"/><text fill="#000000" font-family="sans-serif" font-size="14" lengthAdjust="spacing" textLength="141" x="278.5" y="281.4951">choiceOfPlacement</text><rect fill="none" height="6" style="stroke:#C82930;stroke-width:1.0;" width="6" x="266.5" y="291.4453"/><text fill="#000000" font-family="sans-serif" font-size="14" lengthAdjust="spacing" textLength="153" x="278.5" y="297.792">textFieldOfCharacter</text><line style="stroke:#181818;stroke-width:1.0;" x1="259.5" x2="436.5" y1="305.0938" y2="305.0938"/><ellipse cx="269.5" cy="318.7422" fill="none" rx="3" ry="3" style="stroke:#038048;stroke-width:1.0;"/><text fill="#000000" font-family="sans-serif" font-size="14" lengthAdjust="spacing" textLength="118" x="278.5" y="322.0889">getDecopyInput</text><ellipse cx="269.5" cy="335.0391" fill="none" rx="3" ry="3" style="stroke:#038048;stroke-width:1.0;"/><text fill="#000000" font-family="sans-serif" font-size="14" lengthAdjust="spacing" textLength="129" x="278.5" y="338.3857">setActionListener</text></g><!--class Frame--><g id="elem_Frame"><rect fill="#F1F1F1" height="48" id="Frame" rx="2.5" ry="2.5" style="stroke:#181818;stroke-width:0.5;" width="77" x="74.5" y="265"/><ellipse cx="89.5" cy="281" fill="#ADD1B2" rx="11" ry="11" style="stroke:#181818;stroke-width:1.0;"/><path d="M91.8438,276.6719 C90.9063,276.2344 90.3125,276.0938 89.4375,276.0938 C86.8125,276.0938 84.8125,278.1719 84.8125,280.8906 L84.8125,282.0156 C84.8125,284.5938 86.9219,286.4844 89.8125,286.4844 C91.0313,286.4844 92.1875,286.1875 92.9375,285.6406 C93.5156,285.2344 93.8438,284.7813 93.8438,284.3906 C93.8438,283.9375 93.4531,283.5469 92.9844,283.5469 C92.7656,283.5469 92.5625,283.625 92.375,283.8125 C91.9219,284.2969 91.9219,284.2969 91.7344,284.3906 C91.3125,284.6563 90.625,284.7813 89.8594,284.7813 C87.8125,284.7813 86.5156,283.6875 86.5156,281.9844 L86.5156,280.8906 C86.5156,279.1094 87.7656,277.7969 89.5,277.7969 C90.0781,277.7969 90.6875,277.9531 91.1563,278.2031 C91.6406,278.4844 91.8125,278.7031 91.9063,279.1094 C91.9688,279.5156 92,279.6406 92.1406,279.7656 C92.2813,279.9063 92.5156,280.0156 92.7344,280.0156 C93,280.0156 93.2656,279.875 93.4375,279.6563 C93.5469,279.5 93.5781,279.3125 93.5781,278.8906 L93.5781,277.4688 C93.5781,277.0313 93.5625,276.9063 93.4688,276.75 C93.3125,276.4844 93.0313,276.3438 92.7344,276.3438 C92.4375,276.3438 92.2344,276.4375 92.0156,276.75 L91.8438,276.6719 Z " fill="#000000"/><text fill="#000000" font-family="sans-serif" font-size="14" lengthAdjust="spacing" textLength="45" x="103.5" y="285.8467">Frame</text><line style="stroke:#181818;stroke-width:0.5;" x1="75.5" x2="150.5" y1="297" y2="297"/><line style="stroke:#181818;stroke-width:0.5;" x1="75.5" x2="150.5" y1="305" y2="305"/></g><!--class DecopyInput--><g id="elem_DecopyInput"><rect codeLine="60" fill="#F1F1F1" height="113.1875" id="DecopyInput" rx="2.5" ry="2.5" style="stroke:#181818;stroke-width:0.5;" width="125" x="285.5" y="84.5"/><ellipse cx="300.5" cy="100.5" fill="#ADD1B2" rx="11" ry="11" style="stroke:#181818;stroke-width:1.0;"/><path d="M302.8438,96.1719 C301.9063,95.7344 301.3125,95.5938 300.4375,95.5938 C297.8125,95.5938 295.8125,97.6719 295.8125,100.3906 L295.8125,101.5156 C295.8125,104.0938 297.9219,105.9844 300.8125,105.9844 C302.0313,105.9844 303.1875,105.6875 303.9375,105.1406 C304.5156,104.7344 304.8438,104.2813 304.8438,103.8906 C304.8438,103.4375 304.4531,103.0469 303.9844,103.0469 C303.7656,103.0469 303.5625,103.125 303.375,103.3125 C302.9219,103.7969 302.9219,103.7969 302.7344,103.8906 C302.3125,104.1563 301.625,104.2813 300.8594,104.2813 C298.8125,104.2813 297.5156,103.1875 297.5156,101.4844 L297.5156,100.3906 C297.5156,98.6094 298.7656,97.2969 300.5,97.2969 C301.0781,97.2969 301.6875,97.4531 302.1563,97.7031 C302.6406,97.9844 302.8125,98.2031 302.9063,98.6094 C302.9688,99.0156 303,99.1406 303.1406,99.2656 C303.2813,99.4063 303.5156,99.5156 303.7344,99.5156 C304,99.5156 304.2656,99.375 304.4375,99.1563 C304.5469,99 304.5781,98.8125 304.5781,98.3906 L304.5781,96.9688 C304.5781,96.5313 304.5625,96.4063 304.4688,96.25 C304.3125,95.9844 304.0313,95.8438 303.7344,95.8438 C303.4375,95.8438 303.2344,95.9375 303.0156,96.25 L302.8438,96.1719 Z " fill="#000000"/><text fill="#000000" font-family="sans-serif" font-size="14" lengthAdjust="spacing" textLength="93" x="314.5" y="105.3467">DecopyInput</text><line style="stroke:#181818;stroke-width:0.5;" x1="286.5" x2="409.5" y1="116.5" y2="116.5"/><rect fill="none" height="6" style="stroke:#C82930;stroke-width:1.0;" width="6" x="293.5" y="127.1484"/><text fill="#000000" font-family="sans-serif" font-size="14" lengthAdjust="spacing" textLength="78" x="305.5" y="133.4951">placement</text><rect fill="none" height="6" style="stroke:#C82930;stroke-width:1.0;" width="6" x="293.5" y="143.4453"/><text fill="#000000" font-family="sans-serif" font-size="14" lengthAdjust="spacing" textLength="79" x="305.5" y="149.792">decoString</text><line style="stroke:#181818;stroke-width:1.0;" x1="286.5" x2="409.5" y1="157.0938" y2="157.0938"/><ellipse cx="296.5" cy="170.7422" fill="none" rx="3" ry="3" style="stroke:#038048;stroke-width:1.0;"/><text fill="#000000" font-family="sans-serif" font-size="14" lengthAdjust="spacing" textLength="45" x="305.5" y="174.0889">setter</text><ellipse cx="296.5" cy="187.0391" fill="none" rx="3" ry="3" style="stroke:#038048;stroke-width:1.0;"/><text fill="#000000" font-family="sans-serif" font-size="14" lengthAdjust="spacing" textLength="47" x="305.5" y="190.3857">getter</text></g><!--class ClipboardController--><g id="elem_ClipboardController"><rect codeLine="70" fill="#F1F1F1" height="80.5938" id="ClipboardController" rx="2.5" ry="2.5" style="stroke:#181818;stroke-width:0.5;" width="175" x="816" y="134.5"/><ellipse cx="831" cy="150.5" fill="#ADD1B2" rx="11" ry="11" style="stroke:#181818;stroke-width:1.0;"/><path d="M833.3438,146.1719 C832.4063,145.7344 831.8125,145.5938 830.9375,145.5938 C828.3125,145.5938 826.3125,147.6719 826.3125,150.3906 L826.3125,151.5156 C826.3125,154.0938 828.4219,155.9844 831.3125,155.9844 C832.5313,155.9844 833.6875,155.6875 834.4375,155.1406 C835.0156,154.7344 835.3438,154.2813 835.3438,153.8906 C835.3438,153.4375 834.9531,153.0469 834.4844,153.0469 C834.2656,153.0469 834.0625,153.125 833.875,153.3125 C833.4219,153.7969 833.4219,153.7969 833.2344,153.8906 C832.8125,154.1563 832.125,154.2813 831.3594,154.2813 C829.3125,154.2813 828.0156,153.1875 828.0156,151.4844 L828.0156,150.3906 C828.0156,148.6094 829.2656,147.2969 831,147.2969 C831.5781,147.2969 832.1875,147.4531 832.6563,147.7031 C833.1406,147.9844 833.3125,148.2031 833.4063,148.6094 C833.4688,149.0156 833.5,149.1406 833.6406,149.2656 C833.7813,149.4063 834.0156,149.5156 834.2344,149.5156 C834.5,149.5156 834.7656,149.375 834.9375,149.1563 C835.0469,149 835.0781,148.8125 835.0781,148.3906 L835.0781,146.9688 C835.0781,146.5313 835.0625,146.4063 834.9688,146.25 C834.8125,145.9844 834.5313,145.8438 834.2344,145.8438 C833.9375,145.8438 833.7344,145.9375 833.5156,146.25 L833.3438,146.1719 Z " fill="#000000"/><text fill="#000000" font-family="sans-serif" font-size="14" lengthAdjust="spacing" textLength="143" x="845" y="155.3467">ClipboardController</text><line style="stroke:#181818;stroke-width:0.5;" x1="817" x2="990" y1="166.5" y2="166.5"/><line style="stroke:#181818;stroke-width:1.0;" x1="817" x2="990" y1="174.5" y2="174.5"/><ellipse cx="827" cy="188.1484" fill="none" rx="3" ry="3" style="stroke:#038048;stroke-width:1.0;"/><text fill="#000000" font-family="sans-serif" font-size="14" lengthAdjust="spacing" text-decoration="underline" textLength="26" x="836" y="191.4951">pull</text><ellipse cx="827" cy="204.4453" fill="none" rx="3" ry="3" style="stroke:#038048;stroke-width:1.0;"/><text fill="#000000" font-family="sans-serif" font-size="14" lengthAdjust="spacing" text-decoration="underline" textLength="34" x="836" y="207.792">push</text></g><!--reverse link Content to TextContent--><g id="link_Content_TextContent"><path d="M710.399,437.889 C751.244,418.776 801.635,395.197 840.558,376.984 " fill="none" id="Content-backto-TextContent" style="stroke:#181818;stroke-width:1.0;"/><polygon fill="none" points="713.169,444.321,692.087,446.457,707.235,431.641,713.169,444.321" style="stroke:#181818;stroke-width:1.0;"/></g><!--reverse link Content to Border--><g id="link_Content_Border"><path d="M712.264,483.6067 C760.61,485.6471 821.704,484.9564 861.419,481.5346 " fill="none" id="Content-backto-Border" style="stroke:#181818;stroke-width:1.0;"/><polygon fill="none" points="711.691,490.5863,692.087,482.5434,712.428,476.606,711.691,490.5863" style="stroke:#181818;stroke-width:1.0;"/></g><!--link Content to Border--><g id="link_Content_Border"><path codeLine="84" d="M692.087,460.836 C737.772,457.714 802.623,457.721 848.222,460.858 " fill="none" id="Content-to-Border" style="stroke:#181818;stroke-width:1.0;"/><polygon fill="none" points="861.419,461.905,855.7543,457.4428,849.4566,460.9555,855.1213,465.4177,861.419,461.905" style="stroke:#181818;stroke-width:1.0;"/></g><!--reverse link Border to LeftBorder--><g id="link_Border_LeftBorder"><path d="M965.801,472 C997.5,472 1035.91,472 1066.83,472 " fill="none" id="Border-backto-LeftBorder" style="stroke:#181818;stroke-width:1.0;"/><polygon fill="none" points="965.598,478.9999,945.598,472,965.598,465,965.598,478.9999" style="stroke:#181818;stroke-width:1.0;"/></g><!--reverse link Border to UpDownBorder--><g id="link_Border_UpDownBorder"><path d="M964.35,447.862 C981.129,440.313 999.12,431.46 1015,422 C1031.48,412.182 1048.42,400.305 1063.85,388.674 " fill="none" id="Border-backto-UpDownBorder" style="stroke:#181818;stroke-width:1.0;"/><polygon fill="none" points="966.886,454.392,945.753,455.938,961.309,441.551,966.886,454.392" style="stroke:#181818;stroke-width:1.0;"/></g><!--reverse link ActionListener to DecopyInputController--><g id="link_ActionListener_DecopyInputController"><path d="M200.235,421 C213.376,421 227.068,421 240.579,421 " fill="none" id="ActionListener-backto-DecopyInputController" style="stroke:#181818;stroke-width:1.0;stroke-dasharray:7.0,7.0;"/><polygon fill="none" points="200.145,428,180.145,421,200.145,414,200.145,428" style="stroke:#181818;stroke-width:1.0;"/></g><!--reverse link Frame to DecopyInputFrame--><g id="link_Frame_DecopyInputFrame"><path d="M171.714,289 C197.747,289 229.086,289 258.023,289 " fill="none" id="Frame-backto-DecopyInputFrame" style="stroke:#181818;stroke-width:1.0;"/><polygon fill="none" points="171.694,296,151.694,289,171.694,282,171.694,296" style="stroke:#181818;stroke-width:1.0;"/></g><!--link Decopy to DecopyInputController--><g id="link_Decopy_DecopyInputController"><path codeLine="82" d="M348,496.7812 C348,486.7821 348,476.783 348,466.784 " fill="none" id="Decopy-to-DecopyInputController" style="stroke:#181818;stroke-width:1.0;stroke-dasharray:7.0,7.0;"/><polygon fill="#181818" points="348,461.555,344,470.555,348,466.555,352,470.555,348,461.555" style="stroke:#181818;stroke-width:1.0;"/></g><!--link Decopy to ContentManager--><g id="link_Decopy_ContentManager"><path codeLine="83" d="M391.647,513.4492 C418.501,507.1819 452.896,496.2562 479,478 C512.446,454.609 505.167,432.742 536,406 C542.067,400.738 548.679,395.7 555.516,390.944 " fill="none" id="Decopy-to-ContentManager" style="stroke:#181818;stroke-width:1.0;stroke-dasharray:7.0,7.0;"/><polygon fill="#181818" points="559.8,388.02,550.1114,389.7894,555.6701,390.8385,554.621,396.3972,559.8,388.02" style="stroke:#181818;stroke-width:1.0;"/><text fill="#000000" font-family="sans-serif" font-size="13" lengthAdjust="spacing" textLength="39" x="488" y="410.0669">«use»</text></g><!--link ContentManager to ClipboardController--><g id="link_ContentManager_ClipboardController"><path codeLine="85" d="M699.631,307.439 C740.599,280.694 794.212,245.694 836.034,218.391 " fill="none" id="ContentManager-to-ClipboardController" style="stroke:#181818;stroke-width:1.0;stroke-dasharray:7.0,7.0;"/><polygon fill="#181818" points="840.3,215.606,830.5774,217.1777,836.1136,218.3398,834.9515,223.876,840.3,215.606" style="stroke:#181818;stroke-width:1.0;"/><text fill="#000000" font-family="sans-serif" font-size="13" lengthAdjust="spacing" textLength="39" x="744" y="253.0669">«use»</text></g><!--link DecopyInputController to ContentManager--><g id="link_DecopyInputController_ContentManager"><path codeLine="86" d="M455.275,393.921 C488.228,385.525 523.983,376.414 554.893,368.539 " fill="none" id="DecopyInputController-to-ContentManager" style="stroke:#181818;stroke-width:1.0;stroke-dasharray:7.0,7.0;"/><polygon fill="#181818" points="559.811,367.285,550.1021,365.6303,554.9657,368.5192,552.0768,373.3827,559.811,367.285" style="stroke:#181818;stroke-width:1.0;"/><text fill="#000000" font-family="sans-serif" font-size="13" lengthAdjust="spacing" textLength="39" x="488" y="372.0669">«use»</text></g><!--link ContentManager to Content--><g id="link_ContentManager_Content"><path codeLine="87" d="M636.5,388.765 C636.5,398.505 636.5,408.245 636.5,417.985 " fill="none" id="ContentManager-to-Content" style="stroke:#181818;stroke-width:1.0;stroke-dasharray:7.0,7.0;"/><polygon fill="#181818" points="636.5,423.078,640.5,414.078,636.5,418.078,632.5,414.078,636.5,423.078" style="stroke:#181818;stroke-width:1.0;"/></g><!--link DecopyInputController to DecopyInputFrame--><g id="link_DecopyInputController_DecopyInputFrame"><path codeLine="88" d="M348,380.266 C348,370.45 348,360.634 348,350.818 " fill="none" id="DecopyInputController-to-DecopyInputFrame" style="stroke:#181818;stroke-width:1.0;stroke-dasharray:7.0,7.0;"/><polygon fill="#181818" points="348,345.685,344,354.685,348,350.685,352,354.685,348,345.685" style="stroke:#181818;stroke-width:1.0;"/></g><!--link DecopyInputController to DecopyInput--><g id="link_DecopyInputController_DecopyInput"><path codeLine="89" d="M243.35,380.384 C230.197,370.91 218.553,359.404 210.5,345.5 C185.33,302.04 186.784,276.77 210.5,232.5 C225.668,204.187 253.889,183.132 280.836,168.405 " fill="none" id="DecopyInputController-to-DecopyInput" style="stroke:#181818;stroke-width:1.0;stroke-dasharray:7.0,7.0;"/><polygon fill="#181818" points="285.497,165.912,275.6742,166.6281,281.0877,168.2695,279.4463,173.683,285.497,165.912" style="stroke:#181818;stroke-width:1.0;"/></g><!--link DecopyInputFrame to DecopyInput--><g id="link_DecopyInputFrame_DecopyInput"><path codeLine="90" d="M348,232.344 C348,222.519 348,212.695 348,202.871 " fill="none" id="DecopyInputFrame-to-DecopyInput" style="stroke:#181818;stroke-width:1.0;stroke-dasharray:7.0,7.0;"/><polygon fill="#181818" points="348,197.733,344,206.733,348,202.733,352,206.733,348,197.733" style="stroke:#181818;stroke-width:1.0;"/></g><!--SRC=[nLNDQjmm4BxxAGGzxA5u7w24XNP3892IfMaUG95dTqLaoqWoIJ1xYFTKUYg577hifUII7degbEHXb13o5fMz_hUytbChVB1cHZFV_7pI2EdafrxVwkJtqzstv_jR9yJa72y0xGFXuLNi8BDckMpA0mM1GXjfkWZ3KXRozpWmLgAcJfVhDhQlKImLLfIi41605UI7-unufCAeqgxAlr46KM35XLv_qSc3Nl_Hwrz8Nt_Dliyw-MI2Lz7ncLG24zK4FOYsEBP22r1JpY8_a5jjFl2BGOEFS5dFgLNFL5l0CxyGUBrmaQfxicRG2zkETJl0LX7VSU6PZcy7-GgHLeyx6H_1NBLyvTlu7oQtmN8QxlEBuB-XsNM-x_NrZsAyynmAxfuUTYYweVDXOBYKDabmnamwr0yP-AOp4hqbYlBWY4gJBuY1F3qgGuQlQauF1FQXPOKpbpCGSovyyFehtlPJLZtRjIUUB3abS3oVCKmoy1P6751Wtl5ykiJfi88OR5iDGaifGJLhirCU5MWNXHsWBlACwOaID5Wu5bXPr3hi3ADgnBRqFLAKTIzdHiCpZeLNwtji3rfUkc74c5qkbtO8zGAWUEKOyQXwMrvkpC3UlTnyVtn876QuZXH7WYwMoeoIWAoyJdvuFB4FQqtVV6_UeBszIC9auXJNZ-loWh1EwsqQfyUx5Qbys8ao7evQHYWj-tnDEWE_awNJeKbJ_nS0]--></g></svg>