<?xml version="1.0" encoding="UTF-8" standalone="no"?><svg xmlns="http://www.w3.org/2000/svg" xmlns:xlink="http://www.w3.org/1999/xlink" contentStyleType="text/css" height="618px" preserveAspectRatio="none" style="width:1256px;height:618px;background:#FFFFFF;" version="1.1" viewBox="0 0 1256 618" width="1256px" zoomAndPan="magnify"><defs/><g><!--MD5=[48e99f26bdaad3ba0fdf422cd76d32c5]
cluster Decopy--><g id="cluster_Decopy"><path d="M8.5,6 L61.5,6 A3.75,3.75 0 0 1 64,8.5 L71,29.6094 L1246.5,29.6094 A2.5,2.5 0 0 1 1249,32.1094 L1249,608.5 A2.5,2.5 0 0 1 1246.5,611 L8.5,611 A2.5,2.5 0 0 1 6,608.5 L6,8.5 A2.5,2.5 0 0 1 8.5,6 " fill="none" style="stroke:#000000;stroke-width:1.5;"/><line style="stroke:#000000;stroke-width:1.5;" x1="6" x2="71" y1="29.6094" y2="29.6094"/><text fill="#000000" font-family="sans-serif" font-size="14" font-weight="bold" lengthAdjust="spacing" textLength="52" x="10" y="22.5332">Decopy</text></g><!--MD5=[e6da8715e0653b11acc3150f3f0fcc48]
cluster Content--><g id="cluster_Content"><path d="M613.5,297 L670.5,297 A3.75,3.75 0 0 1 673,299.5 L680,320.6094 L1222.5,320.6094 A2.5,2.5 0 0 1 1225,323.1094 L1225,584.5 A2.5,2.5 0 0 1 1222.5,587 L613.5,587 A2.5,2.5 0 0 1 611,584.5 L611,299.5 A2.5,2.5 0 0 1 613.5,297 " fill="none" style="stroke:#000000;stroke-width:1.5;"/><line style="stroke:#000000;stroke-width:1.5;" x1="611" x2="680" y1="320.6094" y2="320.6094"/><text fill="#000000" font-family="sans-serif" font-size="14" font-weight="bold" lengthAdjust="spacing" textLength="56" x="615" y="313.5332">Content</text></g><!--MD5=[9681dc6e01e10c6b4fe06895ae94f592]
cluster UI--><g id="cluster_UI"><path d="M32.5,50 L47.5,50 A3.75,3.75 0 0 1 50,52.5 L57,73.6094 L539.5,73.6094 A2.5,2.5 0 0 1 542,76.1094 L542,507.5 A2.5,2.5 0 0 1 539.5,510 L32.5,510 A2.5,2.5 0 0 1 30,507.5 L30,52.5 A2.5,2.5 0 0 1 32.5,50 " fill="none" style="stroke:#000000;stroke-width:1.5;"/><line style="stroke:#000000;stroke-width:1.5;" x1="30" x2="57" y1="73.6094" y2="73.6094"/><text fill="#000000" font-family="sans-serif" font-size="14" font-weight="bold" lengthAdjust="spacing" textLength="14" x="34" y="66.5332">UI</text></g><!--MD5=[3e81cc6ee7da4fa8b6adc12b329096f6]
cluster util--><g id="cluster_util"><path d="M850.5,137 L873.5,137 A3.75,3.75 0 0 1 876,139.5 L883,160.6094 L1032.5,160.6094 A2.5,2.5 0 0 1 1035,163.1094 L1035,270.5 A2.5,2.5 0 0 1 1032.5,273 L850.5,273 A2.5,2.5 0 0 1 848,270.5 L848,139.5 A2.5,2.5 0 0 1 850.5,137 " fill="none" style="stroke:#000000;stroke-width:1.5;"/><line style="stroke:#000000;stroke-width:1.5;" x1="848" x2="883" y1="160.6094" y2="160.6094"/><text fill="#000000" font-family="sans-serif" font-size="14" font-weight="bold" lengthAdjust="spacing" textLength="22" x="852" y="153.5332">util</text></g><!--MD5=[54f51b1fcfdf34d2154f3e53fa298782]
class Decopy--><g id="elem_Decopy"><rect codeLine="79" fill="#F1F1F1" height="65.6094" id="Decopy" rx="2.5" ry="2.5" style="stroke:#181818;stroke-width:0.5;" width="80" x="337.5" y="529"/><ellipse cx="352.5" cy="545" fill="#ADD1B2" rx="11" ry="11" style="stroke:#181818;stroke-width:1.0;"/><path d="M356.0156,546.3594 Q355.7969,549.7344 354.6563,550.8594 Q353.6563,551.8594 352.2813,551.8594 Q350.9063,551.8594 349.9063,550.8594 Q348.1719,549.125 348.1719,545.4844 Q348.1719,541.2656 350.0313,539.3906 Q351.0469,538.3906 352.3438,538.3906 Q353.7188,538.3906 354.5313,539.1875 Q356,540.6719 355.9375,543.4375 L353.9375,543.4375 Q353.875,541.1563 353.2188,540.5 Q352.9063,540.1719 352.3438,540.1719 Q351.8594,540.1719 351.4688,540.5625 Q350.2188,541.8125 350.2188,545.3594 Q350.2188,548.4375 351.2813,549.4844 Q351.7344,549.9375 352.2813,549.9375 Q352.7656,549.9375 353.2188,549.4844 Q353.8125,548.9063 353.875,546.3594 L356.0156,546.3594 Z " fill="#000000"/><text fill="#000000" font-family="sans-serif" font-size="14" lengthAdjust="spacing" textLength="48" x="366.5" y="550.7285">Decopy</text><line style="stroke:#181818;stroke-width:0.5;" x1="338.5" x2="416.5" y1="561" y2="561"/><line style="stroke:#181818;stroke-width:1.0;" x1="338.5" x2="416.5" y1="569" y2="569"/><rect fill="none" height="6" style="stroke:#C82930;stroke-width:1.0;" width="6" x="345.5" y="580.3047"/><text fill="#000000" font-family="sans-serif" font-size="14" lengthAdjust="spacing" text-decoration="underline" textLength="39" x="357.5" y="587.5332">usage</text></g><!--MD5=[eef20c47acf0f7364f4642dbd3d4d86f]
class ContentManager--><g id="elem_ContentManager"><rect codeLine="5" fill="#F1F1F1" height="83.2188" id="ContentManager" rx="2.5" ry="2.5" style="stroke:#181818;stroke-width:0.5;" width="138" x="627" y="351.5"/><ellipse cx="642" cy="367.5" fill="#ADD1B2" rx="11" ry="11" style="stroke:#181818;stroke-width:1.0;"/><path d="M645.5156,368.8594 Q645.2969,372.2344 644.1563,373.3594 Q643.1563,374.3594 641.7813,374.3594 Q640.4063,374.3594 639.4063,373.3594 Q637.6719,371.625 637.6719,367.9844 Q637.6719,363.7656 639.5313,361.8906 Q640.5469,360.8906 641.8438,360.8906 Q643.2188,360.8906 644.0313,361.6875 Q645.5,363.1719 645.4375,365.9375 L643.4375,365.9375 Q643.375,363.6563 642.7188,363 Q642.4063,362.6719 641.8438,362.6719 Q641.3594,362.6719 640.9688,363.0625 Q639.7188,364.3125 639.7188,367.8594 Q639.7188,370.9375 640.7813,371.9844 Q641.2344,372.4375 641.7813,372.4375 Q642.2656,372.4375 642.7188,371.9844 Q643.3125,371.4063 643.375,368.8594 L645.5156,368.8594 Z " fill="#000000"/><text fill="#000000" font-family="sans-serif" font-size="14" lengthAdjust="spacing" textLength="106" x="656" y="373.2285">ContentManager</text><line style="stroke:#181818;stroke-width:0.5;" x1="628" x2="764" y1="383.5" y2="383.5"/><line style="stroke:#181818;stroke-width:1.0;" x1="628" x2="764" y1="391.5" y2="391.5"/><ellipse cx="638" cy="405.8047" fill="none" rx="3" ry="3" style="stroke:#038048;stroke-width:1.0;"/><text fill="#000000" font-family="sans-serif" font-size="14" lengthAdjust="spacing" text-decoration="underline" textLength="90" x="647" y="410.0332">createContent</text><ellipse cx="638" cy="423.4141" fill="none" rx="3" ry="3" style="stroke:#038048;stroke-width:1.0;"/><text fill="#000000" font-family="sans-serif" font-size="14" lengthAdjust="spacing" text-decoration="underline" textLength="40" x="647" y="427.6426">output</text></g><!--MD5=[fd7366e9f96236d9aa60dcc04f2b83e5]
class Content--><g id="elem_Content"><rect codeLine="11" fill="#F1F1F1" height="100.8281" id="Content" rx="2.5" ry="2.5" style="stroke:#181818;stroke-width:0.5;" width="101" x="645.5" y="469.5"/><ellipse cx="669.05" cy="485.5" fill="#A9DCDF" rx="11" ry="11" style="stroke:#181818;stroke-width:1.0;"/><path d="M666.8781,491.8594 L664.7375,491.8594 L668.2063,478.3906 L669.9406,478.3906 L673.3938,491.8594 L671.2531,491.8594 L670.3313,488.0781 L667.8156,488.0781 L666.8781,491.8594 Z M669.0031,482.3281 L669.1281,482.3281 L668.2844,486.2813 L669.8469,486.2813 L669.0031,482.3281 Z " fill="#000000"/><text fill="#000000" font-family="sans-serif" font-size="14" font-style="italic" lengthAdjust="spacing" textLength="50" x="684.95" y="491.2285">Content</text><line style="stroke:#181818;stroke-width:0.5;" x1="646.5" x2="745.5" y1="501.5" y2="501.5"/><line style="stroke:#181818;stroke-width:1.0;" x1="646.5" x2="745.5" y1="509.5" y2="509.5"/><ellipse cx="656.5" cy="523.8047" fill="none" rx="3" ry="3" style="stroke:#038048;stroke-width:1.0;"/><text fill="#000000" font-family="sans-serif" font-size="14" font-style="italic" lengthAdjust="spacing" textLength="75" x="665.5" y="528.0332">getColumns</text><ellipse cx="656.5" cy="541.4141" fill="none" rx="3" ry="3" style="stroke:#038048;stroke-width:1.0;"/><text fill="#000000" font-family="sans-serif" font-size="14" font-style="italic" lengthAdjust="spacing" textLength="54" x="665.5" y="545.6426">getRows</text><ellipse cx="656.5" cy="559.0234" fill="none" rx="3" ry="3" style="stroke:#038048;stroke-width:1.0;"/><text fill="#000000" font-family="sans-serif" font-size="14" font-style="italic" lengthAdjust="spacing" textLength="74" x="665.5" y="563.252">getRowText</text></g><!--MD5=[abcce420e1f59bdadbddcfae9041ca61]
class TextContent--><g id="elem_TextContent"><rect codeLine="18" fill="#F1F1F1" height="118.4375" id="TextContent" rx="2.5" ry="2.5" style="stroke:#181818;stroke-width:0.5;" width="109" x="887" y="334"/><ellipse cx="902" cy="350" fill="#ADD1B2" rx="11" ry="11" style="stroke:#181818;stroke-width:1.0;"/><path d="M905.5156,351.3594 Q905.2969,354.7344 904.1563,355.8594 Q903.1563,356.8594 901.7813,356.8594 Q900.4063,356.8594 899.4063,355.8594 Q897.6719,354.125 897.6719,350.4844 Q897.6719,346.2656 899.5313,344.3906 Q900.5469,343.3906 901.8438,343.3906 Q903.2188,343.3906 904.0313,344.1875 Q905.5,345.6719 905.4375,348.4375 L903.4375,348.4375 Q903.375,346.1563 902.7188,345.5 Q902.4063,345.1719 901.8438,345.1719 Q901.3594,345.1719 900.9688,345.5625 Q899.7188,346.8125 899.7188,350.3594 Q899.7188,353.4375 900.7813,354.4844 Q901.2344,354.9375 901.7813,354.9375 Q902.2656,354.9375 902.7188,354.4844 Q903.3125,353.9063 903.375,351.3594 L905.5156,351.3594 Z " fill="#000000"/><text fill="#000000" font-family="sans-serif" font-size="14" lengthAdjust="spacing" textLength="77" x="916" y="355.7285">TextContent</text><line style="stroke:#181818;stroke-width:0.5;" x1="888" x2="995" y1="366" y2="366"/><rect fill="none" height="6" style="stroke:#C82930;stroke-width:1.0;" width="6" x="895" y="377.3047"/><text fill="#000000" font-family="sans-serif" font-size="14" lengthAdjust="spacing" textLength="22" x="907" y="384.5332">text</text><line style="stroke:#181818;stroke-width:1.0;" x1="888" x2="995" y1="391.6094" y2="391.6094"/><ellipse cx="898" cy="405.9141" fill="none" rx="3" ry="3" style="stroke:#038048;stroke-width:1.0;"/><text fill="#000000" font-family="sans-serif" font-size="14" lengthAdjust="spacing" textLength="75" x="907" y="410.1426">getColumns</text><ellipse cx="898" cy="423.5234" fill="none" rx="3" ry="3" style="stroke:#038048;stroke-width:1.0;"/><text fill="#000000" font-family="sans-serif" font-size="14" lengthAdjust="spacing" textLength="54" x="907" y="427.752">getRows</text><ellipse cx="898" cy="441.1328" fill="none" rx="3" ry="3" style="stroke:#038048;stroke-width:1.0;"/><text fill="#000000" font-family="sans-serif" font-size="14" lengthAdjust="spacing" textLength="74" x="907" y="445.3613">getRowText</text></g><!--MD5=[a0336aaa8110b78d9cacadb9d45e00a3]
class Border--><g id="elem_Border"><rect codeLine="26" fill="#F1F1F1" height="65.6094" id="Border" rx="2.5" ry="2.5" style="stroke:#181818;stroke-width:0.5;" width="75" x="904" y="487"/><ellipse cx="919" cy="503" fill="#A9DCDF" rx="11" ry="11" style="stroke:#181818;stroke-width:1.0;"/><path d="M916.8281,509.3594 L914.6875,509.3594 L918.1563,495.8906 L919.8906,495.8906 L923.3438,509.3594 L921.2031,509.3594 L920.2813,505.5781 L917.7656,505.5781 L916.8281,509.3594 Z M918.9531,499.8281 L919.0781,499.8281 L918.2344,503.7813 L919.7969,503.7813 L918.9531,499.8281 Z " fill="#000000"/><text fill="#000000" font-family="sans-serif" font-size="14" font-style="italic" lengthAdjust="spacing" textLength="43" x="933" y="508.7285">Border</text><line style="stroke:#181818;stroke-width:0.5;" x1="905" x2="978" y1="519" y2="519"/><polygon fill="none" points="915,528.3047,919,532.3047,915,536.3047,911,532.3047" style="stroke:#B38D22;stroke-width:1.0;"/><text fill="#000000" font-family="sans-serif" font-size="14" lengthAdjust="spacing" textLength="47" x="924" y="537.5332">content</text><line style="stroke:#181818;stroke-width:0.5;" x1="905" x2="978" y1="544.6094" y2="544.6094"/></g><!--MD5=[a300f8d943aef21fd9e478b7ced889cf]
class LeftBorder--><g id="elem_LeftBorder"><rect codeLine="30" fill="#F1F1F1" height="100.8281" id="LeftBorder" rx="2.5" ry="2.5" style="stroke:#181818;stroke-width:0.5;" width="101" x="1095" y="469.5"/><ellipse cx="1110.9" cy="485.5" fill="#ADD1B2" rx="11" ry="11" style="stroke:#181818;stroke-width:1.0;"/><path d="M1114.4156,486.8594 Q1114.1969,490.2344 1113.0563,491.3594 Q1112.0563,492.3594 1110.6813,492.3594 Q1109.3063,492.3594 1108.3063,491.3594 Q1106.5719,489.625 1106.5719,485.9844 Q1106.5719,481.7656 1108.4313,479.8906 Q1109.4469,478.8906 1110.7438,478.8906 Q1112.1188,478.8906 1112.9313,479.6875 Q1114.4,481.1719 1114.3375,483.9375 L1112.3375,483.9375 Q1112.275,481.6563 1111.6188,481 Q1111.3063,480.6719 1110.7438,480.6719 Q1110.2594,480.6719 1109.8688,481.0625 Q1108.6188,482.3125 1108.6188,485.8594 Q1108.6188,488.9375 1109.6813,489.9844 Q1110.1344,490.4375 1110.6813,490.4375 Q1111.1656,490.4375 1111.6188,489.9844 Q1112.2125,489.4063 1112.275,486.8594 L1114.4156,486.8594 Z " fill="#000000"/><text fill="#000000" font-family="sans-serif" font-size="14" lengthAdjust="spacing" textLength="67" x="1125.1" y="491.2285">LeftBorder</text><line style="stroke:#181818;stroke-width:0.5;" x1="1096" x2="1195" y1="501.5" y2="501.5"/><line style="stroke:#181818;stroke-width:1.0;" x1="1096" x2="1195" y1="509.5" y2="509.5"/><ellipse cx="1106" cy="523.8047" fill="none" rx="3" ry="3" style="stroke:#038048;stroke-width:1.0;"/><text fill="#000000" font-family="sans-serif" font-size="14" lengthAdjust="spacing" textLength="75" x="1115" y="528.0332">getColumns</text><ellipse cx="1106" cy="541.4141" fill="none" rx="3" ry="3" style="stroke:#038048;stroke-width:1.0;"/><text fill="#000000" font-family="sans-serif" font-size="14" lengthAdjust="spacing" textLength="54" x="1115" y="545.6426">getRows</text><ellipse cx="1106" cy="559.0234" fill="none" rx="3" ry="3" style="stroke:#038048;stroke-width:1.0;"/><text fill="#000000" font-family="sans-serif" font-size="14" lengthAdjust="spacing" textLength="74" x="1115" y="563.252">getRowText</text></g><!--MD5=[2f73b57844b4825f4be3828bf1dbe4d2]
class UpDownBorder--><g id="elem_UpDownBorder"><rect codeLine="37" fill="#F1F1F1" height="100.8281" id="UpDownBorder" rx="2.5" ry="2.5" style="stroke:#181818;stroke-width:0.5;" width="127" x="1082" y="333.5"/><ellipse cx="1097" cy="349.5" fill="#ADD1B2" rx="11" ry="11" style="stroke:#181818;stroke-width:1.0;"/><path d="M1100.5156,350.8594 Q1100.2969,354.2344 1099.1563,355.3594 Q1098.1563,356.3594 1096.7813,356.3594 Q1095.4063,356.3594 1094.4063,355.3594 Q1092.6719,353.625 1092.6719,349.9844 Q1092.6719,345.7656 1094.5313,343.8906 Q1095.5469,342.8906 1096.8438,342.8906 Q1098.2188,342.8906 1099.0313,343.6875 Q1100.5,345.1719 1100.4375,347.9375 L1098.4375,347.9375 Q1098.375,345.6563 1097.7188,345 Q1097.4063,344.6719 1096.8438,344.6719 Q1096.3594,344.6719 1095.9688,345.0625 Q1094.7188,346.3125 1094.7188,349.8594 Q1094.7188,352.9375 1095.7813,353.9844 Q1096.2344,354.4375 1096.7813,354.4375 Q1097.2656,354.4375 1097.7188,353.9844 Q1098.3125,353.4063 1098.375,350.8594 L1100.5156,350.8594 Z " fill="#000000"/><text fill="#000000" font-family="sans-serif" font-size="14" lengthAdjust="spacing" textLength="95" x="1111" y="355.2285">UpDownBorder</text><line style="stroke:#181818;stroke-width:0.5;" x1="1083" x2="1208" y1="365.5" y2="365.5"/><line style="stroke:#181818;stroke-width:1.0;" x1="1083" x2="1208" y1="373.5" y2="373.5"/><ellipse cx="1093" cy="387.8047" fill="none" rx="3" ry="3" style="stroke:#038048;stroke-width:1.0;"/><text fill="#000000" font-family="sans-serif" font-size="14" lengthAdjust="spacing" textLength="75" x="1102" y="392.0332">getColumns</text><ellipse cx="1093" cy="405.4141" fill="none" rx="3" ry="3" style="stroke:#038048;stroke-width:1.0;"/><text fill="#000000" font-family="sans-serif" font-size="14" lengthAdjust="spacing" textLength="54" x="1102" y="409.6426">getRows</text><ellipse cx="1093" cy="423.0234" fill="none" rx="3" ry="3" style="stroke:#038048;stroke-width:1.0;"/><text fill="#000000" font-family="sans-serif" font-size="14" lengthAdjust="spacing" textLength="74" x="1102" y="427.252">getRowText</text></g><!--MD5=[ad2b094d75f367b1be648997f5ed2b8d]
class DecopyInputController--><g id="elem_DecopyInputController"><rect codeLine="47" fill="#F1F1F1" height="83.2188" id="DecopyInputController" rx="2.5" ry="2.5" style="stroke:#181818;stroke-width:0.5;" width="190" x="282.5" y="410.5"/><ellipse cx="305.15" cy="426.5" fill="#ADD1B2" rx="11" ry="11" style="stroke:#181818;stroke-width:1.0;"/><path d="M308.6656,427.8594 Q308.4469,431.2344 307.3063,432.3594 Q306.3063,433.3594 304.9313,433.3594 Q303.5563,433.3594 302.5563,432.3594 Q300.8219,430.625 300.8219,426.9844 Q300.8219,422.7656 302.6813,420.8906 Q303.6969,419.8906 304.9938,419.8906 Q306.3688,419.8906 307.1813,420.6875 Q308.65,422.1719 308.5875,424.9375 L306.5875,424.9375 Q306.525,422.6563 305.8688,422 Q305.5563,421.6719 304.9938,421.6719 Q304.5094,421.6719 304.1188,422.0625 Q302.8688,423.3125 302.8688,426.8594 Q302.8688,429.9375 303.9313,430.9844 Q304.3844,431.4375 304.9313,431.4375 Q305.4156,431.4375 305.8688,430.9844 Q306.4625,430.4063 306.525,427.8594 L308.6656,427.8594 Z " fill="#000000"/><text fill="#000000" font-family="sans-serif" font-size="14" lengthAdjust="spacing" textLength="141" x="320.85" y="432.2285">DecopyInputController</text><line style="stroke:#181818;stroke-width:0.5;" x1="283.5" x2="471.5" y1="442.5" y2="442.5"/><line style="stroke:#181818;stroke-width:1.0;" x1="283.5" x2="471.5" y1="450.5" y2="450.5"/><ellipse cx="293.5" cy="464.8047" fill="none" rx="3" ry="3" style="stroke:#038048;stroke-width:1.0;"/><text fill="#000000" font-family="sans-serif" font-size="14" lengthAdjust="spacing" textLength="164" x="302.5" y="469.0332">displayDecopyInputFrame</text><ellipse cx="293.5" cy="482.4141" fill="none" rx="3" ry="3" style="stroke:#038048;stroke-width:1.0;"/><text fill="#000000" font-family="sans-serif" font-size="14" lengthAdjust="spacing" textLength="104" x="302.5" y="486.6426">actionPerformed</text></g><!--MD5=[04935357b5c5a2aec56a7c93da5b843d]
class ActionListener--><g id="elem_ActionListener"><rect fill="#F1F1F1" height="48" id="ActionListener" rx="2.5" ry="2.5" style="stroke:#181818;stroke-width:0.5;" width="122" x="46" y="428"/><ellipse cx="61" cy="444" fill="#B4A7E5" rx="11" ry="11" style="stroke:#181818;stroke-width:1.0;"/><path d="M62.0156,448.875 L62.75,448.875 L62.75,450.8594 L59.2188,450.8594 L59.2188,448.875 L59.9531,448.875 L59.9531,439.375 L59.2188,439.375 L59.2188,437.3906 L62.75,437.3906 L62.75,439.375 L62.0156,439.375 L62.0156,448.875 Z " fill="#000000"/><text fill="#000000" font-family="sans-serif" font-size="14" font-style="italic" lengthAdjust="spacing" textLength="90" x="75" y="449.7285">ActionListener</text><line style="stroke:#181818;stroke-width:0.5;" x1="47" x2="167" y1="460" y2="460"/><line style="stroke:#181818;stroke-width:0.5;" x1="47" x2="167" y1="468" y2="468"/></g><!--MD5=[f527c587ad0be4273fddddc54740e45f]
class DecopyInputFrame--><g id="elem_DecopyInputFrame"><rect codeLine="53" fill="#F1F1F1" height="136.0469" id="DecopyInputFrame" rx="2.5" ry="2.5" style="stroke:#181818;stroke-width:0.5;" width="297" x="229" y="239"/><ellipse cx="313.25" cy="255" fill="#ADD1B2" rx="11" ry="11" style="stroke:#181818;stroke-width:1.0;"/><path d="M316.7656,256.3594 Q316.5469,259.7344 315.4063,260.8594 Q314.4063,261.8594 313.0313,261.8594 Q311.6563,261.8594 310.6563,260.8594 Q308.9219,259.125 308.9219,255.4844 Q308.9219,251.2656 310.7813,249.3906 Q311.7969,248.3906 313.0938,248.3906 Q314.4688,248.3906 315.2813,249.1875 Q316.75,250.6719 316.6875,253.4375 L314.6875,253.4375 Q314.625,251.1563 313.9688,250.5 Q313.6563,250.1719 313.0938,250.1719 Q312.6094,250.1719 312.2188,250.5625 Q310.9688,251.8125 310.9688,255.3594 Q310.9688,258.4375 312.0313,259.4844 Q312.4844,259.9375 313.0313,259.9375 Q313.5156,259.9375 313.9688,259.4844 Q314.5625,258.9063 314.625,256.3594 L316.7656,256.3594 Z " fill="#000000"/><text fill="#000000" font-family="sans-serif" font-size="14" lengthAdjust="spacing" textLength="120" x="333.75" y="260.7285">DecopyInputFrame</text><line style="stroke:#181818;stroke-width:0.5;" x1="230" x2="525" y1="271" y2="271"/><rect fill="none" height="6" style="stroke:#C82930;stroke-width:1.0;" width="6" x="237" y="282.3047"/><text fill="#000000" font-family="sans-serif" font-size="14" lengthAdjust="spacing" textLength="122" x="249" y="289.5332">choiceOfPlacement</text><rect fill="none" height="6" style="stroke:#C82930;stroke-width:1.0;" width="6" x="237" y="299.9141"/><text fill="#000000" font-family="sans-serif" font-size="14" lengthAdjust="spacing" textLength="131" x="249" y="307.1426">textFieldOfCharacter</text><line style="stroke:#181818;stroke-width:1.0;" x1="230" x2="525" y1="314.2188" y2="314.2188"/><ellipse cx="240" cy="328.5234" fill="#84BE84" rx="3" ry="3" style="stroke:#038048;stroke-width:1.0;"/><text fill="#000000" font-family="sans-serif" font-size="14" lengthAdjust="spacing" textLength="271" x="249" y="332.752">DecopyInputFrame(DecopyInputController)</text><ellipse cx="240" cy="346.1328" fill="none" rx="3" ry="3" style="stroke:#038048;stroke-width:1.0;"/><text fill="#000000" font-family="sans-serif" font-size="14" lengthAdjust="spacing" textLength="99" x="249" y="350.3613">getDecopyInput</text><ellipse cx="240" cy="363.7422" fill="none" rx="3" ry="3" style="stroke:#038048;stroke-width:1.0;"/><text fill="#000000" font-family="sans-serif" font-size="14" lengthAdjust="spacing" textLength="109" x="249" y="367.9707">setActionListener</text></g><!--MD5=[678ba86161b65c93147b2a3a8cf02be2]
class Frame--><g id="elem_Frame"><rect fill="#F1F1F1" height="48" id="Frame" rx="2.5" ry="2.5" style="stroke:#181818;stroke-width:0.5;" width="73" x="70.5" y="283"/><ellipse cx="85.5" cy="299" fill="#ADD1B2" rx="11" ry="11" style="stroke:#181818;stroke-width:1.0;"/><path d="M89.0156,300.3594 Q88.7969,303.7344 87.6563,304.8594 Q86.6563,305.8594 85.2813,305.8594 Q83.9063,305.8594 82.9063,304.8594 Q81.1719,303.125 81.1719,299.4844 Q81.1719,295.2656 83.0313,293.3906 Q84.0469,292.3906 85.3438,292.3906 Q86.7188,292.3906 87.5313,293.1875 Q89,294.6719 88.9375,297.4375 L86.9375,297.4375 Q86.875,295.1563 86.2188,294.5 Q85.9063,294.1719 85.3438,294.1719 Q84.8594,294.1719 84.4688,294.5625 Q83.2188,295.8125 83.2188,299.3594 Q83.2188,302.4375 84.2813,303.4844 Q84.7344,303.9375 85.2813,303.9375 Q85.7656,303.9375 86.2188,303.4844 Q86.8125,302.9063 86.875,300.3594 L89.0156,300.3594 Z " fill="#000000"/><text fill="#000000" font-family="sans-serif" font-size="14" lengthAdjust="spacing" textLength="41" x="99.5" y="304.7285">Frame</text><line style="stroke:#181818;stroke-width:0.5;" x1="71.5" x2="142.5" y1="315" y2="315"/><line style="stroke:#181818;stroke-width:0.5;" x1="71.5" x2="142.5" y1="323" y2="323"/></g><!--MD5=[8df13b911cb4cffa73da61a4a6dcc097]
class DecopyInput--><g id="elem_DecopyInput"><rect codeLine="62" fill="#F1F1F1" height="118.4375" id="DecopyInput" rx="2.5" ry="2.5" style="stroke:#181818;stroke-width:0.5;" width="111" x="322" y="86"/><ellipse cx="337" cy="102" fill="#ADD1B2" rx="11" ry="11" style="stroke:#181818;stroke-width:1.0;"/><path d="M340.5156,103.3594 Q340.2969,106.7344 339.1563,107.8594 Q338.1563,108.8594 336.7813,108.8594 Q335.4063,108.8594 334.4063,107.8594 Q332.6719,106.125 332.6719,102.4844 Q332.6719,98.2656 334.5313,96.3906 Q335.5469,95.3906 336.8438,95.3906 Q338.2188,95.3906 339.0313,96.1875 Q340.5,97.6719 340.4375,100.4375 L338.4375,100.4375 Q338.375,98.1563 337.7188,97.5 Q337.4063,97.1719 336.8438,97.1719 Q336.3594,97.1719 335.9688,97.5625 Q334.7188,98.8125 334.7188,102.3594 Q334.7188,105.4375 335.7813,106.4844 Q336.2344,106.9375 336.7813,106.9375 Q337.2656,106.9375 337.7188,106.4844 Q338.3125,105.9063 338.375,103.3594 L340.5156,103.3594 Z " fill="#000000"/><text fill="#000000" font-family="sans-serif" font-size="14" lengthAdjust="spacing" textLength="79" x="351" y="107.7285">DecopyInput</text><line style="stroke:#181818;stroke-width:0.5;" x1="323" x2="432" y1="118" y2="118"/><rect fill="none" height="6" style="stroke:#C82930;stroke-width:1.0;" width="6" x="330" y="129.3047"/><text fill="#000000" font-family="sans-serif" font-size="14" lengthAdjust="spacing" textLength="65" x="342" y="136.5332">placement</text><rect fill="none" height="6" style="stroke:#C82930;stroke-width:1.0;" width="6" x="330" y="146.9141"/><text fill="#000000" font-family="sans-serif" font-size="14" lengthAdjust="spacing" textLength="68" x="342" y="154.1426">decoString</text><line style="stroke:#181818;stroke-width:1.0;" x1="323" x2="432" y1="161.2188" y2="161.2188"/><ellipse cx="333" cy="175.5234" fill="none" rx="3" ry="3" style="stroke:#038048;stroke-width:1.0;"/><text fill="#000000" font-family="sans-serif" font-size="14" lengthAdjust="spacing" textLength="36" x="342" y="179.752">setter</text><ellipse cx="333" cy="193.1328" fill="none" rx="3" ry="3" style="stroke:#038048;stroke-width:1.0;"/><text fill="#000000" font-family="sans-serif" font-size="14" lengthAdjust="spacing" textLength="37" x="342" y="197.3613">getter</text></g><!--MD5=[9b1791399a60565b15043a83cc5fb320]
class ClipboardController--><g id="elem_ClipboardController"><rect codeLine="72" fill="#F1F1F1" height="83.2188" id="ClipboardController" rx="2.5" ry="2.5" style="stroke:#181818;stroke-width:0.5;" width="155" x="864" y="173.5"/><ellipse cx="879" cy="189.5" fill="#ADD1B2" rx="11" ry="11" style="stroke:#181818;stroke-width:1.0;"/><path d="M882.5156,190.8594 Q882.2969,194.2344 881.1563,195.3594 Q880.1563,196.3594 878.7813,196.3594 Q877.4063,196.3594 876.4063,195.3594 Q874.6719,193.625 874.6719,189.9844 Q874.6719,185.7656 876.5313,183.8906 Q877.5469,182.8906 878.8438,182.8906 Q880.2188,182.8906 881.0313,183.6875 Q882.5,185.1719 882.4375,187.9375 L880.4375,187.9375 Q880.375,185.6563 879.7188,185 Q879.4063,184.6719 878.8438,184.6719 Q878.3594,184.6719 877.9688,185.0625 Q876.7188,186.3125 876.7188,189.8594 Q876.7188,192.9375 877.7813,193.9844 Q878.2344,194.4375 878.7813,194.4375 Q879.2656,194.4375 879.7188,193.9844 Q880.3125,193.4063 880.375,190.8594 L882.5156,190.8594 Z " fill="#000000"/><text fill="#000000" font-family="sans-serif" font-size="14" lengthAdjust="spacing" textLength="123" x="893" y="195.2285">ClipboardController</text><line style="stroke:#181818;stroke-width:0.5;" x1="865" x2="1018" y1="205.5" y2="205.5"/><line style="stroke:#181818;stroke-width:1.0;" x1="865" x2="1018" y1="213.5" y2="213.5"/><ellipse cx="875" cy="227.8047" fill="none" rx="3" ry="3" style="stroke:#038048;stroke-width:1.0;"/><text fill="#000000" font-family="sans-serif" font-size="14" lengthAdjust="spacing" text-decoration="underline" textLength="22" x="884" y="232.0332">pull</text><ellipse cx="875" cy="245.4141" fill="none" rx="3" ry="3" style="stroke:#038048;stroke-width:1.0;"/><text fill="#000000" font-family="sans-serif" font-size="14" lengthAdjust="spacing" text-decoration="underline" textLength="31" x="884" y="249.6426">push</text></g><!--MD5=[db183712e240e0475c45e0937285f55e]
reverse link Content to TextContent--><g id="link_Content_TextContent"><path d="M764.41,484.84 C802.99,464.72 850.74,439.82 886.77,421.02 " fill="none" id="Content-backto-TextContent" style="stroke:#181818;stroke-width:1.0;"/><polygon fill="none" points="767.54,491.1,746.57,494.15,761.07,478.69,767.54,491.1" style="stroke:#181818;stroke-width:1.0;"/></g><!--MD5=[0adc5ee3ebe25376b132b22369f9c4b2]
reverse link Content to Border--><g id="link_Content_Border"><path d="M766.79,531.66 C811.42,533.65 867.53,532.92 903.7,529.45 " fill="none" id="Content-backto-Border" style="stroke:#181818;stroke-width:1.0;"/><polygon fill="none" points="766.14,538.63,746.57,530.5,766.94,524.65,766.14,538.63" style="stroke:#181818;stroke-width:1.0;"/></g><!--MD5=[bf817f1b57ec7c93dcc5c3857e4ccc0c]
link Content to Border--><g id="link_Content_Border"><path codeLine="92" d="M746.57,508.88 C788.6,505.71 848.6,505.71 890.7,508.86 " fill="none" id="Content-to-Border" style="stroke:#181818;stroke-width:1.0;"/><polygon fill="none" points="903.7,510,898.0697,505.4945,891.7453,508.9587,897.3755,513.4643,903.7,510" style="stroke:#181818;stroke-width:1.0;"/></g><!--MD5=[7b7e5216770fede1abd991cca0150451]
reverse link Border to LeftBorder--><g id="link_Border_LeftBorder"><path d="M999.17,520 C1029.27,520 1065.92,520 1094.89,520 " fill="none" id="Border-backto-LeftBorder" style="stroke:#181818;stroke-width:1.0;"/><polygon fill="none" points="999.08,527,979.08,520,999.08,513,999.08,527" style="stroke:#181818;stroke-width:1.0;"/></g><!--MD5=[b8763bd25466382ead113274de7fcae5]
reverse link Border to UpDownBorder--><g id="link_Border_UpDownBorder"><path d="M997.51,494.92 C1012.65,487.26 1028.8,478.37 1043,469 C1058.44,458.81 1074.21,446.62 1088.57,434.7 " fill="none" id="Border-backto-UpDownBorder" style="stroke:#181818;stroke-width:1.0;"/><polygon fill="none" points="1000.47,501.26,979.43,503.74,994.33,488.68,1000.47,501.26" style="stroke:#181818;stroke-width:1.0;"/></g><!--MD5=[fee5c98dbc26ec5bc1b25b976b804fcb]
reverse link ActionListener to DecopyInputController--><g id="link_ActionListener_DecopyInputController"><path d="M188.46,452 C218.03,452 251.78,452 282.45,452 " fill="none" id="ActionListener-backto-DecopyInputController" style="stroke:#181818;stroke-width:1.0;stroke-dasharray:7.0,7.0;"/><polygon fill="none" points="188.26,459,168.26,452,188.26,445,188.26,459" style="stroke:#181818;stroke-width:1.0;"/></g><!--MD5=[7e54d409f73b41c1c3c8054e25374743]
reverse link Frame to DecopyInputFrame--><g id="link_Frame_DecopyInputFrame"><path d="M163.85,307 C183.11,307 205.7,307 228.81,307 " fill="none" id="Frame-backto-DecopyInputFrame" style="stroke:#181818;stroke-width:1.0;"/><polygon fill="none" points="163.65,314,143.65,307,163.65,300,163.65,314" style="stroke:#181818;stroke-width:1.0;"/></g><!--MD5=[6c8a4722589188c3383b9951bfb3cec5]
link Decopy to DecopyInputController--><g id="link_Decopy_DecopyInputController"><path codeLine="90" d="M377.5,528.91 C377.5,518.94 377.5,508.96 377.5,498.98 " fill="none" id="Decopy-to-DecopyInputController" style="stroke:#181818;stroke-width:1.0;stroke-dasharray:7.0,7.0;"/><polygon fill="#181818" points="377.5,493.76,373.5,502.76,377.5,498.76,381.5,502.76,377.5,493.76" style="stroke:#181818;stroke-width:1.0;"/></g><!--MD5=[3ecfefaf801d6da1560d75d86d56b0a0]
link Decopy to ContentManager--><g id="link_Decopy_ContentManager"><path codeLine="91" d="M417.77,556.24 C454.24,549.53 508.94,535.88 550,510 C579.54,491.38 576.3,474.5 603,452 C609.13,446.84 615.74,441.77 622.5,436.91 " fill="none" id="Decopy-to-ContentManager" style="stroke:#181818;stroke-width:1.0;stroke-dasharray:7.0,7.0;"/><polygon fill="#181818" points="626.73,433.91,617.0756,435.8574,622.6527,436.804,621.7061,442.3811,626.73,433.91" style="stroke:#181818;stroke-width:1.0;"/><text fill="#000000" font-family="sans-serif" font-size="13" lengthAdjust="spacing" textLength="35" x="559" y="456.4951">«use»</text></g><!--MD5=[442e972cdd8f4afd977eaa49a9aaf9df]
link ContentManager to ClipboardController--><g id="link_ContentManager_ClipboardController"><path codeLine="93" d="M753.78,351.49 C791.48,323.94 840.92,287.79 879.46,259.62 " fill="none" id="ContentManager-to-ClipboardController" style="stroke:#181818;stroke-width:1.0;stroke-dasharray:7.0,7.0;"/><polygon fill="#181818" points="883.63,256.57,873.9996,258.6326,879.5876,259.5126,878.7076,265.1006,883.63,256.57" style="stroke:#181818;stroke-width:1.0;"/><text fill="#000000" font-family="sans-serif" font-size="13" lengthAdjust="spacing" textLength="35" x="796" y="295.4951">«use»</text></g><!--MD5=[b820f8fefa7a509aa7875f41d30a2bfb]
link DecopyInputController to ContentManager--><g id="link_DecopyInputController_ContentManager"><path codeLine="94" d="M472.6,434.46 C520.33,425.56 577.42,414.92 621.81,406.64 " fill="none" id="DecopyInputController-to-ContentManager" style="stroke:#181818;stroke-width:1.0;stroke-dasharray:7.0,7.0;"/><polygon fill="#181818" points="626.88,405.7,617.3002,403.4137,621.9643,406.6145,618.7635,411.2787,626.88,405.7" style="stroke:#181818;stroke-width:1.0;"/><text fill="#000000" font-family="sans-serif" font-size="13" lengthAdjust="spacing" textLength="35" x="559" y="409.4951">«use»</text></g><!--MD5=[9f6cb151b41a76e3acff1c76a13fd142]
link ContentManager to Content--><g id="link_ContentManager_Content"><path codeLine="95" d="M696,434.78 C696,444.61 696,454.43 696,464.26 " fill="none" id="ContentManager-to-Content" style="stroke:#181818;stroke-width:1.0;stroke-dasharray:7.0,7.0;"/><polygon fill="#181818" points="696,469.4,700,460.4,696,464.4,692,460.4,696,469.4" style="stroke:#181818;stroke-width:1.0;"/></g><!--MD5=[094a5b76c3152573cc6b0abfb3fdc5d3]
link DecopyInputController to DecopyInputFrame--><g id="link_DecopyInputController_DecopyInputFrame"><path codeLine="96" d="M377.5,410.37 C377.5,400.4 377.5,390.43 377.5,380.45 " fill="none" id="DecopyInputController-to-DecopyInputFrame" style="stroke:#181818;stroke-width:1.0;stroke-dasharray:7.0,7.0;"/><polygon fill="#181818" points="377.5,375.24,373.5,384.24,377.5,380.24,381.5,384.24,377.5,375.24" style="stroke:#181818;stroke-width:1.0;"/></g><!--MD5=[a4ec4e4c8a38a6abc9935fc41c34086c]
link DecopyInputController to DecopyInput--><g id="link_DecopyInputController_DecopyInput"><path codeLine="97" d="M282.26,434.87 C249.32,423.66 216.24,405.12 198.5,374.5 C168.21,322.19 168.21,290.81 198.5,238.5 C223.32,195.64 275.25,171.61 316.81,158.68 " fill="none" id="DecopyInputController-to-DecopyInput" style="stroke:#181818;stroke-width:1.0;stroke-dasharray:7.0,7.0;"/><polygon fill="#181818" points="321.83,157.16,312.0585,155.9282,317.0428,158.6033,314.3677,163.5877,321.83,157.16" style="stroke:#181818;stroke-width:1.0;"/></g><!--MD5=[3103612ffe7bb84d1d4a2a2bcedb16b6]
link DecopyInputFrame to DecopyInput--><g id="link_DecopyInputFrame_DecopyInput"><path codeLine="98" d="M377.5,238.97 C377.5,229.07 377.5,219.18 377.5,209.28 " fill="none" id="DecopyInputFrame-to-DecopyInput" style="stroke:#181818;stroke-width:1.0;stroke-dasharray:7.0,7.0;"/><polygon fill="#181818" points="377.5,204.1,373.5,213.1,377.5,209.1,381.5,213.1,377.5,204.1" style="stroke:#181818;stroke-width:1.0;"/></g><!--MD5=[0d3691cec8245d2370c08035babaad1b]
@startuml Decopy

' クラス定義
package Decopy{
    Package Content {
        class ContentManager {
            - -
            + {static} createContent
            + {static} output
        }
        ' Decoratorパターン ここから - - -
        abstract class Content {
            - -
            + {abstract} getColumns
            + {abstract} getRows
            + {abstract} getRowText
        }

        class TextContent extends Content {
            - text
            - -
            + getColumns
            + getRows
            + getRowText
        }

        abstract class Border extends Content {
            # content
        }

        class LeftBorder extends Border {
            - -
            + getColumns
            + getRows
            + getRowText
        }

        class UpDownBorder extends Border {
            - -
            + getColumns
            + getRows
            + getRowText
        }
        ' Decoratorパターン ここまで- - -
    }

    package UI {
        class DecopyInputController implements ActionListener{
            - -
            + displayDecopyInputFrame
            + actionPerformed
        }

        class DecopyInputFrame extends Frame{
            - choiceOfPlacement
            - textFieldOfCharacter
            - -
            + DecopyInputFrame(DecopyInputController)
            + getDecopyInput
            + setActionListener
        }

        class DecopyInput{
        - placement
        - decoString
        - -
        + setter
        + getter
        }
    }

    package util {
        class ClipboardController {
        - -
        + {static} pull
        + {static} push
        }
    }

    class Decopy {
        - -
        ' - {static} isPlacement
        ' - {static} createContet
        ' - {static} output
        - {static} usage
    }
}

' クラス間の関係
left to right direction
Decopy .> DecopyInputController
Decopy .> ContentManager: <<use>>
Content - -o Border 
ContentManager ..> ClipboardController: <<use>>
DecopyInputController ..> ContentManager: <<use>>
ContentManager .> Content
DecopyInputController .> DecopyInputFrame
DecopyInputController .> DecopyInput
DecopyInputFrame .> DecopyInput


@enduml

@startuml Decopy

package Decopy{
    Package Content {
        class ContentManager {
            - -
            + {static} createContent
            + {static} output
        }
        abstract class Content {
            - -
            + {abstract} getColumns
            + {abstract} getRows
            + {abstract} getRowText
        }

        class TextContent extends Content {
            - text
            - -
            + getColumns
            + getRows
            + getRowText
        }

        abstract class Border extends Content {
            # content
        }

        class LeftBorder extends Border {
            - -
            + getColumns
            + getRows
            + getRowText
        }

        class UpDownBorder extends Border {
            - -
            + getColumns
            + getRows
            + getRowText
        }
    }

    package UI {
        class DecopyInputController implements ActionListener{
            - -
            + displayDecopyInputFrame
            + actionPerformed
        }

        class DecopyInputFrame extends Frame{
            - choiceOfPlacement
            - textFieldOfCharacter
            - -
            + DecopyInputFrame(DecopyInputController)
            + getDecopyInput
            + setActionListener
        }

        class DecopyInput{
        - placement
        - decoString
        - -
        + setter
        + getter
        }
    }

    package util {
        class ClipboardController {
        - -
        + {static} pull
        + {static} push
        }
    }

    class Decopy {
        - -
        - {static} usage
    }
}

left to right direction
Decopy .> DecopyInputController
Decopy .> ContentManager: <<use>>
Content - -o Border 
ContentManager ..> ClipboardController: <<use>>
DecopyInputController ..> ContentManager: <<use>>
ContentManager .> Content
DecopyInputController .> DecopyInputFrame
DecopyInputController .> DecopyInput
DecopyInputFrame .> DecopyInput


@enduml

PlantUML version 1.2022.7(Tue Aug 23 02:01:30 JST 2022)
(GPL source distribution)
Java Runtime: OpenJDK Runtime Environment
JVM: OpenJDK 64-Bit Server VM
Default Encoding: MS932
Language: ja
Country: JP
--></g></svg>