<?xml version="1.0" encoding="UTF-8" standalone="no"?><svg xmlns="http://www.w3.org/2000/svg" xmlns:xlink="http://www.w3.org/1999/xlink" contentStyleType="text/css" height="862px" preserveAspectRatio="none" style="width:1038px;height:862px;background:#FFFFFF;" version="1.1" viewBox="0 0 1038 862" width="1038px" zoomAndPan="magnify"><defs/><g><!--MD5=[48e99f26bdaad3ba0fdf422cd76d32c5]
cluster Decopy--><g id="cluster_Decopy"><path d="M8.5,6 L61.5,6 A3.75,3.75 0 0 1 64,8.5 L71,29.6094 L1028.5,29.6094 A2.5,2.5 0 0 1 1031,32.1094 L1031,852.5 A2.5,2.5 0 0 1 1028.5,855 L8.5,855 A2.5,2.5 0 0 1 6,852.5 L6,8.5 A2.5,2.5 0 0 1 8.5,6 " fill="none" style="stroke:#000000;stroke-width:1.5;"/><line style="stroke:#000000;stroke-width:1.5;" x1="6" x2="71" y1="29.6094" y2="29.6094"/><text fill="#000000" font-family="sans-serif" font-size="14" font-weight="bold" lengthAdjust="spacing" textLength="52" x="10" y="22.5332">Decopy</text></g><!--MD5=[e6da8715e0653b11acc3150f3f0fcc48]
cluster Content--><g id="cluster_Content"><path d="M469.5,50 L526.5,50 A3.75,3.75 0 0 1 529,52.5 L536,73.6094 L1004.5,73.6094 A2.5,2.5 0 0 1 1007,76.1094 L1007,337.5 A2.5,2.5 0 0 1 1004.5,340 L469.5,340 A2.5,2.5 0 0 1 467,337.5 L467,52.5 A2.5,2.5 0 0 1 469.5,50 " fill="none" style="stroke:#000000;stroke-width:1.5;"/><line style="stroke:#000000;stroke-width:1.5;" x1="467" x2="536" y1="73.6094" y2="73.6094"/><text fill="#000000" font-family="sans-serif" font-size="14" font-weight="bold" lengthAdjust="spacing" textLength="56" x="471" y="66.5332">Content</text></g><!--MD5=[9681dc6e01e10c6b4fe06895ae94f592]
cluster UI--><g id="cluster_UI"><path d="M32.5,490 L47.5,490 A3.75,3.75 0 0 1 50,492.5 L57,513.6094 L602.5,513.6094 A2.5,2.5 0 0 1 605,516.1094 L605,828.5 A2.5,2.5 0 0 1 602.5,831 L32.5,831 A2.5,2.5 0 0 1 30,828.5 L30,492.5 A2.5,2.5 0 0 1 32.5,490 " fill="none" style="stroke:#000000;stroke-width:1.5;"/><line style="stroke:#000000;stroke-width:1.5;" x1="30" x2="57" y1="513.6094" y2="513.6094"/><text fill="#000000" font-family="sans-serif" font-size="14" font-weight="bold" lengthAdjust="spacing" textLength="14" x="34" y="506.5332">UI</text></g><!--MD5=[3e81cc6ee7da4fa8b6adc12b329096f6]
cluster util--><g id="cluster_util"><path d="M635.5,364 L658.5,364 A3.75,3.75 0 0 1 661,366.5 L668,387.6094 L817.5,387.6094 A2.5,2.5 0 0 1 820,390.1094 L820,497.5 A2.5,2.5 0 0 1 817.5,500 L635.5,500 A2.5,2.5 0 0 1 633,497.5 L633,366.5 A2.5,2.5 0 0 1 635.5,364 " fill="none" style="stroke:#000000;stroke-width:1.5;"/><line style="stroke:#000000;stroke-width:1.5;" x1="633" x2="668" y1="387.6094" y2="387.6094"/><text fill="#000000" font-family="sans-serif" font-size="14" font-weight="bold" lengthAdjust="spacing" textLength="22" x="637" y="380.5332">util</text></g><!--MD5=[54f51b1fcfdf34d2154f3e53fa298782]
class Decopy--><g id="elem_Decopy"><rect codeLine="77" fill="#F1F1F1" height="118.4375" id="Decopy" rx="2.5" ry="2.5" style="stroke:#181818;stroke-width:0.5;" width="108" x="479.5" y="356"/><ellipse cx="507.1" cy="372" fill="#ADD1B2" rx="11" ry="11" style="stroke:#181818;stroke-width:1.0;"/><path d="M510.6156,373.3594 Q510.3969,376.7344 509.2563,377.8594 Q508.2563,378.8594 506.8813,378.8594 Q505.5063,378.8594 504.5063,377.8594 Q502.7719,376.125 502.7719,372.4844 Q502.7719,368.2656 504.6313,366.3906 Q505.6469,365.3906 506.9438,365.3906 Q508.3188,365.3906 509.1313,366.1875 Q510.6,367.6719 510.5375,370.4375 L508.5375,370.4375 Q508.475,368.1563 507.8188,367.5 Q507.5063,367.1719 506.9438,367.1719 Q506.4594,367.1719 506.0688,367.5625 Q504.8188,368.8125 504.8188,372.3594 Q504.8188,375.4375 505.8813,376.4844 Q506.3344,376.9375 506.8813,376.9375 Q507.3656,376.9375 507.8188,376.4844 Q508.4125,375.9063 508.475,373.3594 L510.6156,373.3594 Z " fill="#000000"/><text fill="#000000" font-family="sans-serif" font-size="14" lengthAdjust="spacing" textLength="48" x="523.9" y="377.7285">Decopy</text><line style="stroke:#181818;stroke-width:0.5;" x1="480.5" x2="586.5" y1="388" y2="388"/><line style="stroke:#181818;stroke-width:1.0;" x1="480.5" x2="586.5" y1="396" y2="396"/><rect fill="none" height="6" style="stroke:#C82930;stroke-width:1.0;" width="6" x="487.5" y="407.3047"/><text fill="#000000" font-family="sans-serif" font-size="14" lengthAdjust="spacing" text-decoration="underline" textLength="76" x="499.5" y="414.5332">isPlacement</text><rect fill="none" height="6" style="stroke:#C82930;stroke-width:1.0;" width="6" x="487.5" y="424.9141"/><text fill="#000000" font-family="sans-serif" font-size="14" lengthAdjust="spacing" text-decoration="underline" textLength="82" x="499.5" y="432.1426">createContet</text><rect fill="none" height="6" style="stroke:#C82930;stroke-width:1.0;" width="6" x="487.5" y="442.5234"/><text fill="#000000" font-family="sans-serif" font-size="14" lengthAdjust="spacing" text-decoration="underline" textLength="40" x="499.5" y="449.752">output</text><rect fill="none" height="6" style="stroke:#C82930;stroke-width:1.0;" width="6" x="487.5" y="460.1328"/><text fill="#000000" font-family="sans-serif" font-size="14" lengthAdjust="spacing" text-decoration="underline" textLength="39" x="499.5" y="467.3613">usage</text></g><!--MD5=[fd7366e9f96236d9aa60dcc04f2b83e5]
class Content--><g id="elem_Content"><rect codeLine="7" fill="#F1F1F1" height="100.8281" id="Content" rx="2.5" ry="2.5" style="stroke:#181818;stroke-width:0.5;" width="101" x="483" y="151.5"/><ellipse cx="506.55" cy="167.5" fill="#A9DCDF" rx="11" ry="11" style="stroke:#181818;stroke-width:1.0;"/><path d="M504.3781,173.8594 L502.2375,173.8594 L505.7063,160.3906 L507.4406,160.3906 L510.8938,173.8594 L508.7531,173.8594 L507.8313,170.0781 L505.3156,170.0781 L504.3781,173.8594 Z M506.5031,164.3281 L506.6281,164.3281 L505.7844,168.2813 L507.3469,168.2813 L506.5031,164.3281 Z " fill="#000000"/><text fill="#000000" font-family="sans-serif" font-size="14" font-style="italic" lengthAdjust="spacing" textLength="50" x="522.45" y="173.2285">Content</text><line style="stroke:#181818;stroke-width:0.5;" x1="484" x2="583" y1="183.5" y2="183.5"/><line style="stroke:#181818;stroke-width:1.0;" x1="484" x2="583" y1="191.5" y2="191.5"/><ellipse cx="494" cy="205.8047" fill="none" rx="3" ry="3" style="stroke:#038048;stroke-width:1.0;"/><text fill="#000000" font-family="sans-serif" font-size="14" font-style="italic" lengthAdjust="spacing" textLength="75" x="503" y="210.0332">getColumns</text><ellipse cx="494" cy="223.4141" fill="none" rx="3" ry="3" style="stroke:#038048;stroke-width:1.0;"/><text fill="#000000" font-family="sans-serif" font-size="14" font-style="italic" lengthAdjust="spacing" textLength="54" x="503" y="227.6426">getRows</text><ellipse cx="494" cy="241.0234" fill="none" rx="3" ry="3" style="stroke:#038048;stroke-width:1.0;"/><text fill="#000000" font-family="sans-serif" font-size="14" font-style="italic" lengthAdjust="spacing" textLength="74" x="503" y="245.252">getRowText</text></g><!--MD5=[abcce420e1f59bdadbddcfae9041ca61]
class TextContent--><g id="elem_TextContent"><rect codeLine="14" fill="#F1F1F1" height="118.4375" id="TextContent" rx="2.5" ry="2.5" style="stroke:#181818;stroke-width:0.5;" width="109" x="672" y="206"/><ellipse cx="687" cy="222" fill="#ADD1B2" rx="11" ry="11" style="stroke:#181818;stroke-width:1.0;"/><path d="M690.5156,223.3594 Q690.2969,226.7344 689.1563,227.8594 Q688.1563,228.8594 686.7813,228.8594 Q685.4063,228.8594 684.4063,227.8594 Q682.6719,226.125 682.6719,222.4844 Q682.6719,218.2656 684.5313,216.3906 Q685.5469,215.3906 686.8438,215.3906 Q688.2188,215.3906 689.0313,216.1875 Q690.5,217.6719 690.4375,220.4375 L688.4375,220.4375 Q688.375,218.1563 687.7188,217.5 Q687.4063,217.1719 686.8438,217.1719 Q686.3594,217.1719 685.9688,217.5625 Q684.7188,218.8125 684.7188,222.3594 Q684.7188,225.4375 685.7813,226.4844 Q686.2344,226.9375 686.7813,226.9375 Q687.2656,226.9375 687.7188,226.4844 Q688.3125,225.9063 688.375,223.3594 L690.5156,223.3594 Z " fill="#000000"/><text fill="#000000" font-family="sans-serif" font-size="14" lengthAdjust="spacing" textLength="77" x="701" y="227.7285">TextContent</text><line style="stroke:#181818;stroke-width:0.5;" x1="673" x2="780" y1="238" y2="238"/><rect fill="none" height="6" style="stroke:#C82930;stroke-width:1.0;" width="6" x="680" y="249.3047"/><text fill="#000000" font-family="sans-serif" font-size="14" lengthAdjust="spacing" textLength="22" x="692" y="256.5332">text</text><line style="stroke:#181818;stroke-width:1.0;" x1="673" x2="780" y1="263.6094" y2="263.6094"/><ellipse cx="683" cy="277.9141" fill="none" rx="3" ry="3" style="stroke:#038048;stroke-width:1.0;"/><text fill="#000000" font-family="sans-serif" font-size="14" lengthAdjust="spacing" textLength="75" x="692" y="282.1426">getColumns</text><ellipse cx="683" cy="295.5234" fill="none" rx="3" ry="3" style="stroke:#038048;stroke-width:1.0;"/><text fill="#000000" font-family="sans-serif" font-size="14" lengthAdjust="spacing" textLength="54" x="692" y="299.752">getRows</text><ellipse cx="683" cy="313.1328" fill="none" rx="3" ry="3" style="stroke:#038048;stroke-width:1.0;"/><text fill="#000000" font-family="sans-serif" font-size="14" lengthAdjust="spacing" textLength="74" x="692" y="317.3613">getRowText</text></g><!--MD5=[a0336aaa8110b78d9cacadb9d45e00a3]
class Border--><g id="elem_Border"><rect codeLine="22" fill="#F1F1F1" height="65.6094" id="Border" rx="2.5" ry="2.5" style="stroke:#181818;stroke-width:0.5;" width="75" x="689" y="105"/><ellipse cx="704" cy="121" fill="#A9DCDF" rx="11" ry="11" style="stroke:#181818;stroke-width:1.0;"/><path d="M701.8281,127.3594 L699.6875,127.3594 L703.1563,113.8906 L704.8906,113.8906 L708.3438,127.3594 L706.2031,127.3594 L705.2813,123.5781 L702.7656,123.5781 L701.8281,127.3594 Z M703.9531,117.8281 L704.0781,117.8281 L703.2344,121.7813 L704.7969,121.7813 L703.9531,117.8281 Z " fill="#000000"/><text fill="#000000" font-family="sans-serif" font-size="14" font-style="italic" lengthAdjust="spacing" textLength="43" x="718" y="126.7285">Border</text><line style="stroke:#181818;stroke-width:0.5;" x1="690" x2="763" y1="137" y2="137"/><polygon fill="none" points="700,146.3047,704,150.3047,700,154.3047,696,150.3047" style="stroke:#B38D22;stroke-width:1.0;"/><text fill="#000000" font-family="sans-serif" font-size="14" lengthAdjust="spacing" textLength="47" x="709" y="155.5332">content</text><line style="stroke:#181818;stroke-width:0.5;" x1="690" x2="763" y1="162.6094" y2="162.6094"/></g><!--MD5=[a300f8d943aef21fd9e478b7ced889cf]
class LeftBorder--><g id="elem_LeftBorder"><rect codeLine="26" fill="#F1F1F1" height="100.8281" id="LeftBorder" rx="2.5" ry="2.5" style="stroke:#181818;stroke-width:0.5;" width="101" x="877" y="222.5"/><ellipse cx="892.9" cy="238.5" fill="#ADD1B2" rx="11" ry="11" style="stroke:#181818;stroke-width:1.0;"/><path d="M896.4156,239.8594 Q896.1969,243.2344 895.0563,244.3594 Q894.0563,245.3594 892.6813,245.3594 Q891.3063,245.3594 890.3063,244.3594 Q888.5719,242.625 888.5719,238.9844 Q888.5719,234.7656 890.4313,232.8906 Q891.4469,231.8906 892.7438,231.8906 Q894.1188,231.8906 894.9313,232.6875 Q896.4,234.1719 896.3375,236.9375 L894.3375,236.9375 Q894.275,234.6563 893.6188,234 Q893.3063,233.6719 892.7438,233.6719 Q892.2594,233.6719 891.8688,234.0625 Q890.6188,235.3125 890.6188,238.8594 Q890.6188,241.9375 891.6813,242.9844 Q892.1344,243.4375 892.6813,243.4375 Q893.1656,243.4375 893.6188,242.9844 Q894.2125,242.4063 894.275,239.8594 L896.4156,239.8594 Z " fill="#000000"/><text fill="#000000" font-family="sans-serif" font-size="14" lengthAdjust="spacing" textLength="67" x="907.1" y="244.2285">LeftBorder</text><line style="stroke:#181818;stroke-width:0.5;" x1="878" x2="977" y1="254.5" y2="254.5"/><line style="stroke:#181818;stroke-width:1.0;" x1="878" x2="977" y1="262.5" y2="262.5"/><ellipse cx="888" cy="276.8047" fill="none" rx="3" ry="3" style="stroke:#038048;stroke-width:1.0;"/><text fill="#000000" font-family="sans-serif" font-size="14" lengthAdjust="spacing" textLength="75" x="897" y="281.0332">getColumns</text><ellipse cx="888" cy="294.4141" fill="none" rx="3" ry="3" style="stroke:#038048;stroke-width:1.0;"/><text fill="#000000" font-family="sans-serif" font-size="14" lengthAdjust="spacing" textLength="54" x="897" y="298.6426">getRows</text><ellipse cx="888" cy="312.0234" fill="none" rx="3" ry="3" style="stroke:#038048;stroke-width:1.0;"/><text fill="#000000" font-family="sans-serif" font-size="14" lengthAdjust="spacing" textLength="74" x="897" y="316.252">getRowText</text></g><!--MD5=[2f73b57844b4825f4be3828bf1dbe4d2]
class UpDownBorder--><g id="elem_UpDownBorder"><rect codeLine="33" fill="#F1F1F1" height="100.8281" id="UpDownBorder" rx="2.5" ry="2.5" style="stroke:#181818;stroke-width:0.5;" width="127" x="864" y="86.5"/><ellipse cx="879" cy="102.5" fill="#ADD1B2" rx="11" ry="11" style="stroke:#181818;stroke-width:1.0;"/><path d="M882.5156,103.8594 Q882.2969,107.2344 881.1563,108.3594 Q880.1563,109.3594 878.7813,109.3594 Q877.4063,109.3594 876.4063,108.3594 Q874.6719,106.625 874.6719,102.9844 Q874.6719,98.7656 876.5313,96.8906 Q877.5469,95.8906 878.8438,95.8906 Q880.2188,95.8906 881.0313,96.6875 Q882.5,98.1719 882.4375,100.9375 L880.4375,100.9375 Q880.375,98.6563 879.7188,98 Q879.4063,97.6719 878.8438,97.6719 Q878.3594,97.6719 877.9688,98.0625 Q876.7188,99.3125 876.7188,102.8594 Q876.7188,105.9375 877.7813,106.9844 Q878.2344,107.4375 878.7813,107.4375 Q879.2656,107.4375 879.7188,106.9844 Q880.3125,106.4063 880.375,103.8594 L882.5156,103.8594 Z " fill="#000000"/><text fill="#000000" font-family="sans-serif" font-size="14" lengthAdjust="spacing" textLength="95" x="893" y="108.2285">UpDownBorder</text><line style="stroke:#181818;stroke-width:0.5;" x1="865" x2="990" y1="118.5" y2="118.5"/><line style="stroke:#181818;stroke-width:1.0;" x1="865" x2="990" y1="126.5" y2="126.5"/><ellipse cx="875" cy="140.8047" fill="none" rx="3" ry="3" style="stroke:#038048;stroke-width:1.0;"/><text fill="#000000" font-family="sans-serif" font-size="14" lengthAdjust="spacing" textLength="75" x="884" y="145.0332">getColumns</text><ellipse cx="875" cy="158.4141" fill="none" rx="3" ry="3" style="stroke:#038048;stroke-width:1.0;"/><text fill="#000000" font-family="sans-serif" font-size="14" lengthAdjust="spacing" textLength="54" x="884" y="162.6426">getRows</text><ellipse cx="875" cy="176.0234" fill="none" rx="3" ry="3" style="stroke:#038048;stroke-width:1.0;"/><text fill="#000000" font-family="sans-serif" font-size="14" lengthAdjust="spacing" textLength="74" x="884" y="180.252">getRowText</text></g><!--MD5=[ad2b094d75f367b1be648997f5ed2b8d]
class DecopyInputController--><g id="elem_DecopyInputController"><rect codeLine="43" fill="#F1F1F1" height="118.4375" id="DecopyInputController" rx="2.5" ry="2.5" style="stroke:#181818;stroke-width:0.5;" width="190" x="228" y="526"/><ellipse cx="250.65" cy="542" fill="#ADD1B2" rx="11" ry="11" style="stroke:#181818;stroke-width:1.0;"/><path d="M254.1656,543.3594 Q253.9469,546.7344 252.8063,547.8594 Q251.8063,548.8594 250.4313,548.8594 Q249.0563,548.8594 248.0563,547.8594 Q246.3219,546.125 246.3219,542.4844 Q246.3219,538.2656 248.1813,536.3906 Q249.1969,535.3906 250.4938,535.3906 Q251.8688,535.3906 252.6813,536.1875 Q254.15,537.6719 254.0875,540.4375 L252.0875,540.4375 Q252.025,538.1563 251.3688,537.5 Q251.0563,537.1719 250.4938,537.1719 Q250.0094,537.1719 249.6188,537.5625 Q248.3688,538.8125 248.3688,542.3594 Q248.3688,545.4375 249.4313,546.4844 Q249.8844,546.9375 250.4313,546.9375 Q250.9156,546.9375 251.3688,546.4844 Q251.9625,545.9063 252.025,543.3594 L254.1656,543.3594 Z " fill="#000000"/><text fill="#000000" font-family="sans-serif" font-size="14" lengthAdjust="spacing" textLength="141" x="266.35" y="547.7285">DecopyInputController</text><line style="stroke:#181818;stroke-width:0.5;" x1="229" x2="417" y1="558" y2="558"/><rect fill="none" height="6" style="stroke:#C82930;stroke-width:1.0;" width="6" x="236" y="569.3047"/><text fill="#000000" font-family="sans-serif" font-size="14" lengthAdjust="spacing" textLength="77" x="248" y="576.5332">decopyInput</text><line style="stroke:#181818;stroke-width:1.0;" x1="229" x2="417" y1="583.6094" y2="583.6094"/><ellipse cx="239" cy="597.9141" fill="none" rx="3" ry="3" style="stroke:#038048;stroke-width:1.0;"/><text fill="#000000" font-family="sans-serif" font-size="14" lengthAdjust="spacing" textLength="164" x="248" y="602.1426">displayDecopyInputFrame</text><ellipse cx="239" cy="615.5234" fill="none" rx="3" ry="3" style="stroke:#038048;stroke-width:1.0;"/><text fill="#000000" font-family="sans-serif" font-size="14" lengthAdjust="spacing" textLength="99" x="248" y="619.752">getDecopyInput</text><ellipse cx="239" cy="633.1328" fill="none" rx="3" ry="3" style="stroke:#038048;stroke-width:1.0;"/><text fill="#000000" font-family="sans-serif" font-size="14" lengthAdjust="spacing" textLength="104" x="248" y="637.3613">actionPerformed</text></g><!--MD5=[04935357b5c5a2aec56a7c93da5b843d]
class ActionListener--><g id="elem_ActionListener"><rect fill="#F1F1F1" height="48" id="ActionListener" rx="2.5" ry="2.5" style="stroke:#181818;stroke-width:0.5;" width="122" x="46" y="561"/><ellipse cx="61" cy="577" fill="#B4A7E5" rx="11" ry="11" style="stroke:#181818;stroke-width:1.0;"/><path d="M62.0156,581.875 L62.75,581.875 L62.75,583.8594 L59.2188,583.8594 L59.2188,581.875 L59.9531,581.875 L59.9531,572.375 L59.2188,572.375 L59.2188,570.3906 L62.75,570.3906 L62.75,572.375 L62.0156,572.375 L62.0156,581.875 Z " fill="#000000"/><text fill="#000000" font-family="sans-serif" font-size="14" font-style="italic" lengthAdjust="spacing" textLength="90" x="75" y="582.7285">ActionListener</text><line style="stroke:#181818;stroke-width:0.5;" x1="47" x2="167" y1="593" y2="593"/><line style="stroke:#181818;stroke-width:0.5;" x1="47" x2="167" y1="601" y2="601"/></g><!--MD5=[f527c587ad0be4273fddddc54740e45f]
class DecopyInputFrame--><g id="elem_DecopyInputFrame"><rect codeLine="51" fill="#F1F1F1" height="136.0469" id="DecopyInputFrame" rx="2.5" ry="2.5" style="stroke:#181818;stroke-width:0.5;" width="157" x="244.5" y="679"/><ellipse cx="261.75" cy="695" fill="#ADD1B2" rx="11" ry="11" style="stroke:#181818;stroke-width:1.0;"/><path d="M265.2656,696.3594 Q265.0469,699.7344 263.9063,700.8594 Q262.9063,701.8594 261.5313,701.8594 Q260.1563,701.8594 259.1563,700.8594 Q257.4219,699.125 257.4219,695.4844 Q257.4219,691.2656 259.2813,689.3906 Q260.2969,688.3906 261.5938,688.3906 Q262.9688,688.3906 263.7813,689.1875 Q265.25,690.6719 265.1875,693.4375 L263.1875,693.4375 Q263.125,691.1563 262.4688,690.5 Q262.1563,690.1719 261.5938,690.1719 Q261.1094,690.1719 260.7188,690.5625 Q259.4688,691.8125 259.4688,695.3594 Q259.4688,698.4375 260.5313,699.4844 Q260.9844,699.9375 261.5313,699.9375 Q262.0156,699.9375 262.4688,699.4844 Q263.0625,698.9063 263.125,696.3594 L265.2656,696.3594 Z " fill="#000000"/><text fill="#000000" font-family="sans-serif" font-size="14" lengthAdjust="spacing" textLength="120" x="276.25" y="700.7285">DecopyInputFrame</text><line style="stroke:#181818;stroke-width:0.5;" x1="245.5" x2="400.5" y1="711" y2="711"/><rect fill="none" height="6" style="stroke:#C82930;stroke-width:1.0;" width="6" x="252.5" y="722.3047"/><text fill="#000000" font-family="sans-serif" font-size="14" lengthAdjust="spacing" textLength="122" x="264.5" y="729.5332">choiceOfPlacement</text><rect fill="none" height="6" style="stroke:#C82930;stroke-width:1.0;" width="6" x="252.5" y="739.9141"/><text fill="#000000" font-family="sans-serif" font-size="14" lengthAdjust="spacing" textLength="131" x="264.5" y="747.1426">textFieldOfCharacter</text><line style="stroke:#181818;stroke-width:1.0;" x1="245.5" x2="400.5" y1="754.2188" y2="754.2188"/><ellipse cx="255.5" cy="768.5234" fill="none" rx="3" ry="3" style="stroke:#038048;stroke-width:1.0;"/><text fill="#000000" font-family="sans-serif" font-size="14" lengthAdjust="spacing" textLength="71" x="264.5" y="772.752">getDecoStr</text><ellipse cx="255.5" cy="786.1328" fill="none" rx="3" ry="3" style="stroke:#038048;stroke-width:1.0;"/><text fill="#000000" font-family="sans-serif" font-size="14" lengthAdjust="spacing" textLength="86" x="264.5" y="790.3613">getPlacement</text><ellipse cx="255.5" cy="803.7422" fill="none" rx="3" ry="3" style="stroke:#038048;stroke-width:1.0;"/><text fill="#000000" font-family="sans-serif" font-size="14" lengthAdjust="spacing" textLength="109" x="264.5" y="807.9707">setActionListener</text></g><!--MD5=[678ba86161b65c93147b2a3a8cf02be2]
class Frame--><g id="elem_Frame"><rect fill="#F1F1F1" height="48" id="Frame" rx="2.5" ry="2.5" style="stroke:#181818;stroke-width:0.5;" width="73" x="70.5" y="723"/><ellipse cx="85.5" cy="739" fill="#ADD1B2" rx="11" ry="11" style="stroke:#181818;stroke-width:1.0;"/><path d="M89.0156,740.3594 Q88.7969,743.7344 87.6563,744.8594 Q86.6563,745.8594 85.2813,745.8594 Q83.9063,745.8594 82.9063,744.8594 Q81.1719,743.125 81.1719,739.4844 Q81.1719,735.2656 83.0313,733.3906 Q84.0469,732.3906 85.3438,732.3906 Q86.7188,732.3906 87.5313,733.1875 Q89,734.6719 88.9375,737.4375 L86.9375,737.4375 Q86.875,735.1563 86.2188,734.5 Q85.9063,734.1719 85.3438,734.1719 Q84.8594,734.1719 84.4688,734.5625 Q83.2188,735.8125 83.2188,739.3594 Q83.2188,742.4375 84.2813,743.4844 Q84.7344,743.9375 85.2813,743.9375 Q85.7656,743.9375 86.2188,743.4844 Q86.8125,742.9063 86.875,740.3594 L89.0156,740.3594 Z " fill="#000000"/><text fill="#000000" font-family="sans-serif" font-size="14" lengthAdjust="spacing" textLength="41" x="99.5" y="744.7285">Frame</text><line style="stroke:#181818;stroke-width:0.5;" x1="71.5" x2="142.5" y1="755" y2="755"/><line style="stroke:#181818;stroke-width:0.5;" x1="71.5" x2="142.5" y1="763" y2="763"/></g><!--MD5=[8df13b911cb4cffa73da61a4a6dcc097]
class DecopyInput--><g id="elem_DecopyInput"><rect codeLine="60" fill="#F1F1F1" height="118.4375" id="DecopyInput" rx="2.5" ry="2.5" style="stroke:#181818;stroke-width:0.5;" width="111" x="478" y="526"/><ellipse cx="493" cy="542" fill="#ADD1B2" rx="11" ry="11" style="stroke:#181818;stroke-width:1.0;"/><path d="M496.5156,543.3594 Q496.2969,546.7344 495.1563,547.8594 Q494.1563,548.8594 492.7813,548.8594 Q491.4063,548.8594 490.4063,547.8594 Q488.6719,546.125 488.6719,542.4844 Q488.6719,538.2656 490.5313,536.3906 Q491.5469,535.3906 492.8438,535.3906 Q494.2188,535.3906 495.0313,536.1875 Q496.5,537.6719 496.4375,540.4375 L494.4375,540.4375 Q494.375,538.1563 493.7188,537.5 Q493.4063,537.1719 492.8438,537.1719 Q492.3594,537.1719 491.9688,537.5625 Q490.7188,538.8125 490.7188,542.3594 Q490.7188,545.4375 491.7813,546.4844 Q492.2344,546.9375 492.7813,546.9375 Q493.2656,546.9375 493.7188,546.4844 Q494.3125,545.9063 494.375,543.3594 L496.5156,543.3594 Z " fill="#000000"/><text fill="#000000" font-family="sans-serif" font-size="14" lengthAdjust="spacing" textLength="79" x="507" y="547.7285">DecopyInput</text><line style="stroke:#181818;stroke-width:0.5;" x1="479" x2="588" y1="558" y2="558"/><rect fill="none" height="6" style="stroke:#C82930;stroke-width:1.0;" width="6" x="486" y="569.3047"/><text fill="#000000" font-family="sans-serif" font-size="14" lengthAdjust="spacing" textLength="65" x="498" y="576.5332">placement</text><rect fill="none" height="6" style="stroke:#C82930;stroke-width:1.0;" width="6" x="486" y="586.9141"/><text fill="#000000" font-family="sans-serif" font-size="14" lengthAdjust="spacing" textLength="68" x="498" y="594.1426">decoString</text><line style="stroke:#181818;stroke-width:1.0;" x1="479" x2="588" y1="601.2188" y2="601.2188"/><ellipse cx="489" cy="615.5234" fill="none" rx="3" ry="3" style="stroke:#038048;stroke-width:1.0;"/><text fill="#000000" font-family="sans-serif" font-size="14" lengthAdjust="spacing" textLength="36" x="498" y="619.752">setter</text><ellipse cx="489" cy="633.1328" fill="none" rx="3" ry="3" style="stroke:#038048;stroke-width:1.0;"/><text fill="#000000" font-family="sans-serif" font-size="14" lengthAdjust="spacing" textLength="37" x="498" y="637.3613">getter</text></g><!--MD5=[9b1791399a60565b15043a83cc5fb320]
class ClipboardController--><g id="elem_ClipboardController"><rect codeLine="70" fill="#F1F1F1" height="83.2188" id="ClipboardController" rx="2.5" ry="2.5" style="stroke:#181818;stroke-width:0.5;" width="155" x="649" y="400.5"/><ellipse cx="664" cy="416.5" fill="#ADD1B2" rx="11" ry="11" style="stroke:#181818;stroke-width:1.0;"/><path d="M667.5156,417.8594 Q667.2969,421.2344 666.1563,422.3594 Q665.1563,423.3594 663.7813,423.3594 Q662.4063,423.3594 661.4063,422.3594 Q659.6719,420.625 659.6719,416.9844 Q659.6719,412.7656 661.5313,410.8906 Q662.5469,409.8906 663.8438,409.8906 Q665.2188,409.8906 666.0313,410.6875 Q667.5,412.1719 667.4375,414.9375 L665.4375,414.9375 Q665.375,412.6563 664.7188,412 Q664.4063,411.6719 663.8438,411.6719 Q663.3594,411.6719 662.9688,412.0625 Q661.7188,413.3125 661.7188,416.8594 Q661.7188,419.9375 662.7813,420.9844 Q663.2344,421.4375 663.7813,421.4375 Q664.2656,421.4375 664.7188,420.9844 Q665.3125,420.4063 665.375,417.8594 L667.5156,417.8594 Z " fill="#000000"/><text fill="#000000" font-family="sans-serif" font-size="14" lengthAdjust="spacing" textLength="123" x="678" y="422.2285">ClipboardController</text><line style="stroke:#181818;stroke-width:0.5;" x1="650" x2="803" y1="432.5" y2="432.5"/><line style="stroke:#181818;stroke-width:1.0;" x1="650" x2="803" y1="440.5" y2="440.5"/><ellipse cx="660" cy="454.8047" fill="none" rx="3" ry="3" style="stroke:#038048;stroke-width:1.0;"/><text fill="#000000" font-family="sans-serif" font-size="14" lengthAdjust="spacing" text-decoration="underline" textLength="22" x="669" y="459.0332">pull</text><ellipse cx="660" cy="472.4141" fill="none" rx="3" ry="3" style="stroke:#038048;stroke-width:1.0;"/><text fill="#000000" font-family="sans-serif" font-size="14" lengthAdjust="spacing" text-decoration="underline" textLength="31" x="669" y="476.6426">push</text></g><!--MD5=[db183712e240e0475c45e0937285f55e]
reverse link Content to TextContent--><g id="link_Content_TextContent"><path d="M603.28,224.69 C625.79,232.11 650.46,240.25 671.71,247.26 " fill="none" id="Content-backto-TextContent" style="stroke:#181818;stroke-width:1.0;"/><polygon fill="none" points="600.99,231.3,584.18,218.39,605.37,218.01,600.99,231.3" style="stroke:#181818;stroke-width:1.0;"/></g><!--MD5=[0adc5ee3ebe25376b132b22369f9c4b2]
reverse link Content to Border--><g id="link_Content_Border"><path d="M603.44,191.2 C632.26,182.54 664.59,171.04 688.74,160.62 " fill="none" id="Content-backto-Border" style="stroke:#181818;stroke-width:1.0;"/><polygon fill="none" points="605.34,197.94,584.18,196.7,601.5,184.48,605.34,197.94" style="stroke:#181818;stroke-width:1.0;"/></g><!--MD5=[bf817f1b57ec7c93dcc5c3857e4ccc0c]
link Content to Border--><g id="link_Content_Border"><path codeLine="88" d="M584.18,173.34 C612.43,161.89 647.68,150.08 675.91,142.61 " fill="none" id="Content-to-Border" style="stroke:#181818;stroke-width:1.0;"/><polygon fill="none" points="688.74,139.41,681.9484,136.9865,677.0991,142.3235,683.8907,144.7471,688.74,139.41" style="stroke:#181818;stroke-width:1.0;"/></g><!--MD5=[7b7e5216770fede1abd991cca0150451]
reverse link Border to LeftBorder--><g id="link_Border_LeftBorder"><path d="M782.26,162.15 C797.5,169.69 813.77,178.54 828,188 C844.74,199.13 861.75,212.8 876.81,225.89 " fill="none" id="Border-backto-LeftBorder" style="stroke:#181818;stroke-width:1.0;"/><polygon fill="none" points="779.11,168.41,764.05,153.5,785.12,155.76,779.11,168.41" style="stroke:#181818;stroke-width:1.0;"/></g><!--MD5=[b8763bd25466382ead113274de7fcae5]
reverse link Border to UpDownBorder--><g id="link_Border_UpDownBorder"><path d="M784.53,137.71 C809.35,137.59 838.51,137.44 863.92,137.31 " fill="none" id="Border-backto-UpDownBorder" style="stroke:#181818;stroke-width:1.0;"/><polygon fill="none" points="784.5,144.71,764.46,137.81,784.43,130.71,784.5,144.71" style="stroke:#181818;stroke-width:1.0;"/></g><!--MD5=[fee5c98dbc26ec5bc1b25b976b804fcb]
reverse link ActionListener to DecopyInputController--><g id="link_ActionListener_DecopyInputController"><path d="M188.48,585 C201.33,585 214.73,585 227.86,585 " fill="none" id="ActionListener-backto-DecopyInputController" style="stroke:#181818;stroke-width:1.0;stroke-dasharray:7.0,7.0;"/><polygon fill="none" points="188.18,592,168.18,585,188.18,578,188.18,592" style="stroke:#181818;stroke-width:1.0;"/></g><!--MD5=[7e54d409f73b41c1c3c8054e25374743]
reverse link Frame to DecopyInputFrame--><g id="link_Frame_DecopyInputFrame"><path d="M163.99,747 C188.51,747 217.71,747 244.29,747 " fill="none" id="Frame-backto-DecopyInputFrame" style="stroke:#181818;stroke-width:1.0;"/><polygon fill="none" points="163.82,754,143.82,747,163.82,740,163.82,754" style="stroke:#181818;stroke-width:1.0;"/></g><!--MD5=[437320bc1430c28651c1345c80f63e37]
link Decopy to ClipboardController--><g id="link_Decopy_ClipboardController"><path codeLine="89" d="M587.7,422.52 C604.96,424.96 624.52,427.73 643.37,430.39 " fill="none" id="Decopy-to-ClipboardController" style="stroke:#181818;stroke-width:1.0;stroke-dasharray:7.0,7.0;"/><polygon fill="#181818" points="648.67,431.14,640.3198,425.9175,643.7194,430.4389,639.198,433.8385,648.67,431.14" style="stroke:#181818;stroke-width:1.0;"/></g><!--MD5=[3b9c550b31a8dc986f72ed0e60ae5e41]
link Decopy to Content--><g id="link_Decopy_Content"><path codeLine="90" d="M533.5,355.93 C533.5,323.2 533.5,290.48 533.5,257.76 " fill="none" id="Decopy-to-Content" style="stroke:#181818;stroke-width:1.0;stroke-dasharray:7.0,7.0;"/><polygon fill="#181818" points="533.5,252.51,529.5,261.51,533.5,257.51,537.5,261.51,533.5,252.51" style="stroke:#181818;stroke-width:1.0;"/></g><!--MD5=[f77a846faae1e8206c0be76c7e320acb]
reverse link DecopyInputController to Decopy--><g id="link_DecopyInputController_Decopy"><path codeLine="91" d="M400.79,522.39 C426.84,501.15 455.36,477.89 479.18,458.48 " fill="none" id="DecopyInputController-backto-Decopy" style="stroke:#181818;stroke-width:1.0;stroke-dasharray:7.0,7.0;"/><polygon fill="#181818" points="396.63,525.78,406.1374,523.2091,400.5106,522.627,401.0927,517.0002,396.63,525.78" style="stroke:#181818;stroke-width:1.0;"/></g><!--MD5=[736d375a2c7fadfcc123d84099b7d5fe]
reverse link DecopyInputFrame to DecopyInputController--><g id="link_DecopyInputFrame_DecopyInputController"><path codeLine="92" d="M323,673.8 C323,663.9 323,654 323,644.1 " fill="none" id="DecopyInputFrame-backto-DecopyInputController" style="stroke:#181818;stroke-width:1.0;stroke-dasharray:7.0,7.0;"/><polygon fill="#181818" points="323,678.97,327,669.97,323,673.97,319,669.97,323,678.97" style="stroke:#181818;stroke-width:1.0;"/></g><!--MD5=[a4ec4e4c8a38a6abc9935fc41c34086c]
link DecopyInputController to DecopyInput--><g id="link_DecopyInputController_DecopyInput"><path codeLine="93" d="M418.19,585 C436.67,585 455.58,585 472.56,585 " fill="none" id="DecopyInputController-to-DecopyInput" style="stroke:#181818;stroke-width:1.0;"/><polygon fill="#181818" points="477.77,585,468.77,581,472.77,585,468.77,589,477.77,585" style="stroke:#181818;stroke-width:1.0;"/></g><!--MD5=[4303f1ccf8cf9333a08c663ae01a1d2b]
@startuml Decopy

' クラス定義
package Decopy{
    Package Content {
        ' class ContentManager {}
        ' Decoratorパターン ここから - - -
        abstract class Content {
            - -
            + {abstract} getColumns
            + {abstract} getRows
            + {abstract} getRowText
        }

        class TextContent extends Content {
            - text
            - -
            + getColumns
            + getRows
            + getRowText
        }

        abstract class Border extends Content {
            # content
        }

        class LeftBorder extends Border {
            - -
            + getColumns
            + getRows
            + getRowText
        }

        class UpDownBorder extends Border {
            - -
            + getColumns
            + getRows
            + getRowText
        }
        ' Decoratorパターン ここまで- - -
    }

    package UI {
        class DecopyInputController implements ActionListener{
            - decopyInput
            - -
            + displayDecopyInputFrame
            + getDecopyInput
            + actionPerformed
        }

        class DecopyInputFrame extends Frame{
            - choiceOfPlacement
            - textFieldOfCharacter
            - -
            + getDecoStr
            + getPlacement
            + setActionListener
        }

        class DecopyInput{
        - placement
        - decoString
        - -
        + setter
        + getter
        }
    }

    package util {
        class ClipboardController {
        - -
        + {static} pull
        + {static} push
        }
    }

    class Decopy {
        - -
        - {static} isPlacement
        - {static} createContet
        - {static} output
        - {static} usage
    }
}

' クラス間の関係
left to right direction
Content - -o Border 
Decopy ..> ClipboardController
Decopy .right.> Content
Decopy .up.> DecopyInputController
DecopyInputController .left> DecopyInputFrame
DecopyInputController - -> DecopyInput


@enduml

@startuml Decopy

package Decopy{
    Package Content {
        abstract class Content {
            - -
            + {abstract} getColumns
            + {abstract} getRows
            + {abstract} getRowText
        }

        class TextContent extends Content {
            - text
            - -
            + getColumns
            + getRows
            + getRowText
        }

        abstract class Border extends Content {
            # content
        }

        class LeftBorder extends Border {
            - -
            + getColumns
            + getRows
            + getRowText
        }

        class UpDownBorder extends Border {
            - -
            + getColumns
            + getRows
            + getRowText
        }
    }

    package UI {
        class DecopyInputController implements ActionListener{
            - decopyInput
            - -
            + displayDecopyInputFrame
            + getDecopyInput
            + actionPerformed
        }

        class DecopyInputFrame extends Frame{
            - choiceOfPlacement
            - textFieldOfCharacter
            - -
            + getDecoStr
            + getPlacement
            + setActionListener
        }

        class DecopyInput{
        - placement
        - decoString
        - -
        + setter
        + getter
        }
    }

    package util {
        class ClipboardController {
        - -
        + {static} pull
        + {static} push
        }
    }

    class Decopy {
        - -
        - {static} isPlacement
        - {static} createContet
        - {static} output
        - {static} usage
    }
}

left to right direction
Content - -o Border 
Decopy ..> ClipboardController
Decopy .right.> Content
Decopy .up.> DecopyInputController
DecopyInputController .left> DecopyInputFrame
DecopyInputController - -> DecopyInput


@enduml

PlantUML version 1.2022.7(Tue Aug 23 02:01:30 JST 2022)
(GPL source distribution)
Java Runtime: OpenJDK Runtime Environment
JVM: OpenJDK 64-Bit Server VM
Default Encoding: MS932
Language: ja
Country: JP
--></g></svg>