<?xml version="1.0" encoding="UTF-8" standalone="no"?><svg xmlns="http://www.w3.org/2000/svg" xmlns:xlink="http://www.w3.org/1999/xlink" contentStyleType="text/css" height="828px" preserveAspectRatio="none" style="width:984px;height:828px;background:#FFFFFF;" version="1.1" viewBox="0 0 984 828" width="984px" zoomAndPan="magnify"><defs/><g><!--cluster Decopy--><g id="cluster_Decopy"><path d="M8.5,6 L61.5,6 A3.75,3.75 0 0 1 64,8.5 L71,28.4883 L974.5,28.4883 A2.5,2.5 0 0 1 977,30.9883 L977,818.5 A2.5,2.5 0 0 1 974.5,821 L8.5,821 A2.5,2.5 0 0 1 6,818.5 L6,8.5 A2.5,2.5 0 0 1 8.5,6 " fill="none" style="stroke:#000000;stroke-width:1.5;"/><line style="stroke:#000000;stroke-width:1.5;" x1="6" x2="71" y1="28.4883" y2="28.4883"/><text fill="#000000" font-family="sans-serif" font-size="14" font-weight="bold" lengthAdjust="spacing" textLength="52" x="10" y="21.5352">Decopy</text></g><!--cluster Content--><g id="cluster_Content"><path d="M642.5,259.5 L700.5,259.5 A3.75,3.75 0 0 1 703,262 L710,281.9883 L950.5,281.9883 A2.5,2.5 0 0 1 953,284.4883 L953,769.5 A2.5,2.5 0 0 1 950.5,772 L642.5,772 A2.5,2.5 0 0 1 640,769.5 L640,262 A2.5,2.5 0 0 1 642.5,259.5 " fill="none" style="stroke:#000000;stroke-width:1.5;"/><line style="stroke:#000000;stroke-width:1.5;" x1="640" x2="710" y1="281.9883" y2="281.9883"/><text fill="#000000" font-family="sans-serif" font-size="14" font-weight="bold" lengthAdjust="spacing" textLength="57" x="644" y="275.0352">Content</text></g><!--cluster UI--><g id="cluster_UI"><path d="M32.5,458 L48.5,458 A3.75,3.75 0 0 1 51,460.5 L58,480.4883 L613.5,480.4883 A2.5,2.5 0 0 1 616,482.9883 L616,794.5 A2.5,2.5 0 0 1 613.5,797 L32.5,797 A2.5,2.5 0 0 1 30,794.5 L30,460.5 A2.5,2.5 0 0 1 32.5,458 " fill="none" style="stroke:#000000;stroke-width:1.5;"/><line style="stroke:#000000;stroke-width:1.5;" x1="30" x2="58" y1="480.4883" y2="480.4883"/><text fill="#000000" font-family="sans-serif" font-size="14" font-weight="bold" lengthAdjust="spacing" textLength="15" x="34" y="473.5352">UI</text></g><!--cluster util--><g id="cluster_util"><path d="M401.5,49 L427.5,49 A3.75,3.75 0 0 1 430,51.5 L437,71.4883 L598.5,71.4883 A2.5,2.5 0 0 1 601,73.9883 L601,178.5 A2.5,2.5 0 0 1 598.5,181 L401.5,181 A2.5,2.5 0 0 1 399,178.5 L399,51.5 A2.5,2.5 0 0 1 401.5,49 " fill="none" style="stroke:#000000;stroke-width:1.5;"/><line style="stroke:#000000;stroke-width:1.5;" x1="399" x2="437" y1="71.4883" y2="71.4883"/><text fill="#000000" font-family="sans-serif" font-size="14" font-weight="bold" lengthAdjust="spacing" textLength="25" x="403" y="64.5352">util</text></g><!--class Decopy--><g id="elem_Decopy"><rect codeLine="75" fill="#F1F1F1" height="113.9531" id="Decopy" rx="2.5" ry="2.5" style="stroke:#181818;stroke-width:0.5;" width="114" x="443" y="286"/><ellipse cx="472.4" cy="302" fill="#ADD1B2" rx="11" ry="11" style="stroke:#181818;stroke-width:1.0;"/><path d="M474.8731,308.1431 Q474.2921,308.4419 473.6529,308.5913 Q473.0138,308.7407 472.3082,308.7407 Q469.8014,308.7407 468.4815,307.0889 Q467.1617,305.437 467.1617,302.3159 Q467.1617,299.1865 468.4815,297.5347 Q469.8014,295.8828 472.3082,295.8828 Q473.0138,295.8828 473.6612,296.0322 Q474.3087,296.1816 474.8731,296.4805 L474.8731,299.2031 Q474.2423,298.6221 473.6488,298.3523 Q473.0553,298.0825 472.4244,298.0825 Q471.0797,298.0825 470.3949,299.1492 Q469.7101,300.2158 469.7101,302.3159 Q469.7101,304.4077 470.3949,305.4744 Q471.0797,306.541 472.4244,306.541 Q473.0553,306.541 473.6488,306.2712 Q474.2423,306.0015 474.8731,305.4204 Z " fill="#000000"/><text fill="#000000" font-family="sans-serif" font-size="14" lengthAdjust="spacing" textLength="50" x="489.6" y="307.291">Decopy</text><line style="stroke:#181818;stroke-width:0.5;" x1="444" x2="556" y1="318" y2="318"/><line style="stroke:#181818;stroke-width:1.0;" x1="444" x2="556" y1="326" y2="326"/><rect fill="none" height="6" style="stroke:#C82930;stroke-width:1.0;" width="6" x="451" y="336.7441"/><text fill="#000000" font-family="sans-serif" font-size="14" lengthAdjust="spacing" text-decoration="underline" textLength="81" x="463" y="343.5352">isPlacement</text><rect fill="none" height="6" style="stroke:#C82930;stroke-width:1.0;" width="6" x="451" y="353.2324"/><text fill="#000000" font-family="sans-serif" font-size="14" lengthAdjust="spacing" text-decoration="underline" textLength="88" x="463" y="360.0234">createContet</text><rect fill="none" height="6" style="stroke:#C82930;stroke-width:1.0;" width="6" x="451" y="369.7207"/><text fill="#000000" font-family="sans-serif" font-size="14" lengthAdjust="spacing" text-decoration="underline" textLength="46" x="463" y="376.5117">output</text><rect fill="none" height="6" style="stroke:#C82930;stroke-width:1.0;" width="6" x="451" y="386.209"/><text fill="#000000" font-family="sans-serif" font-size="14" lengthAdjust="spacing" text-decoration="underline" textLength="41" x="463" y="393">usage</text></g><!--class Content--><g id="elem_Content"><rect codeLine="6" fill="#F1F1F1" height="97.4648" id="Content" rx="2.5" ry="2.5" style="stroke:#181818;stroke-width:0.5;" width="109" x="726.5" y="294.5"/><ellipse cx="751.4" cy="310.5" fill="#A9DCDF" rx="11" ry="11" style="stroke:#181818;stroke-width:1.0;"/><path d="M751.2633,305.8481 L750.1095,310.9199 L752.4254,310.9199 Z M749.7691,303.6069 L752.7657,303.6069 L756.1109,316 L753.6622,316 L752.8985,312.937 L749.6197,312.937 L748.8727,316 L746.4239,316 Z " fill="#000000"/><text fill="#000000" font-family="sans-serif" font-size="14" font-style="italic" lengthAdjust="spacing" textLength="55" x="767.6" y="315.791">Content</text><line style="stroke:#181818;stroke-width:0.5;" x1="727.5" x2="834.5" y1="326.5" y2="326.5"/><line style="stroke:#181818;stroke-width:1.0;" x1="727.5" x2="834.5" y1="334.5" y2="334.5"/><ellipse cx="737.5" cy="348.2441" fill="none" rx="3" ry="3" style="stroke:#038048;stroke-width:1.0;"/><text fill="#000000" font-family="sans-serif" font-size="14" font-style="italic" lengthAdjust="spacing" textLength="83" x="746.5" y="352.0352">getColumns</text><ellipse cx="737.5" cy="364.7324" fill="none" rx="3" ry="3" style="stroke:#038048;stroke-width:1.0;"/><text fill="#000000" font-family="sans-serif" font-size="14" font-style="italic" lengthAdjust="spacing" textLength="58" x="746.5" y="368.5234">getRows</text><ellipse cx="737.5" cy="381.2207" fill="none" rx="3" ry="3" style="stroke:#038048;stroke-width:1.0;"/><text fill="#000000" font-family="sans-serif" font-size="14" font-style="italic" lengthAdjust="spacing" textLength="82" x="746.5" y="385.0117">getRowText</text></g><!--class TextContent--><g id="elem_TextContent"><rect codeLine="13" fill="#F1F1F1" height="113.9531" id="TextContent" rx="2.5" ry="2.5" style="stroke:#181818;stroke-width:0.5;" width="118" x="656" y="460"/><ellipse cx="671" cy="476" fill="#ADD1B2" rx="11" ry="11" style="stroke:#181818;stroke-width:1.0;"/><path d="M673.4731,482.1431 Q672.8921,482.4419 672.2529,482.5913 Q671.6138,482.7407 670.9082,482.7407 Q668.4014,482.7407 667.0815,481.0889 Q665.7617,479.437 665.7617,476.3159 Q665.7617,473.1865 667.0815,471.5347 Q668.4014,469.8828 670.9082,469.8828 Q671.6138,469.8828 672.2612,470.0322 Q672.9087,470.1816 673.4731,470.4805 L673.4731,473.2031 Q672.8423,472.6221 672.2488,472.3523 Q671.6553,472.0825 671.0244,472.0825 Q669.6797,472.0825 668.9949,473.1492 Q668.3101,474.2158 668.3101,476.3159 Q668.3101,478.4077 668.9949,479.4744 Q669.6797,480.541 671.0244,480.541 Q671.6553,480.541 672.2488,480.2712 Q672.8423,480.0015 673.4731,479.4204 Z " fill="#000000"/><text fill="#000000" font-family="sans-serif" font-size="14" lengthAdjust="spacing" textLength="86" x="685" y="481.291">TextContent</text><line style="stroke:#181818;stroke-width:0.5;" x1="657" x2="773" y1="492" y2="492"/><rect fill="none" height="6" style="stroke:#C82930;stroke-width:1.0;" width="6" x="664" y="502.7441"/><text fill="#000000" font-family="sans-serif" font-size="14" lengthAdjust="spacing" textLength="27" x="676" y="509.5352">text</text><line style="stroke:#181818;stroke-width:1.0;" x1="657" x2="773" y1="516.4883" y2="516.4883"/><ellipse cx="667" cy="530.2324" fill="none" rx="3" ry="3" style="stroke:#038048;stroke-width:1.0;"/><text fill="#000000" font-family="sans-serif" font-size="14" lengthAdjust="spacing" textLength="83" x="676" y="534.0234">getColumns</text><ellipse cx="667" cy="546.7207" fill="none" rx="3" ry="3" style="stroke:#038048;stroke-width:1.0;"/><text fill="#000000" font-family="sans-serif" font-size="14" lengthAdjust="spacing" textLength="58" x="676" y="550.5117">getRows</text><ellipse cx="667" cy="563.209" fill="none" rx="3" ry="3" style="stroke:#038048;stroke-width:1.0;"/><text fill="#000000" font-family="sans-serif" font-size="14" lengthAdjust="spacing" textLength="82" x="676" y="567">getRowText</text></g><!--class Border--><g id="elem_Border"><rect codeLine="21" fill="#F1F1F1" height="64.4883" id="Border" rx="2.5" ry="2.5" style="stroke:#181818;stroke-width:0.5;" width="78" x="809" y="485"/><ellipse cx="824" cy="501" fill="#A9DCDF" rx="11" ry="11" style="stroke:#181818;stroke-width:1.0;"/><path d="M823.8633,496.3481 L822.7095,501.4199 L825.0254,501.4199 Z M822.3691,494.1069 L825.3657,494.1069 L828.7109,506.5 L826.2622,506.5 L825.4985,503.437 L822.2197,503.437 L821.4727,506.5 L819.0239,506.5 Z " fill="#000000"/><text fill="#000000" font-family="sans-serif" font-size="14" font-style="italic" lengthAdjust="spacing" textLength="46" x="838" y="506.291">Border</text><line style="stroke:#181818;stroke-width:0.5;" x1="810" x2="886" y1="517" y2="517"/><polygon fill="none" points="820,525.7441,824,529.7441,820,533.7441,816,529.7441" style="stroke:#B38D22;stroke-width:1.0;"/><text fill="#000000" font-family="sans-serif" font-size="14" lengthAdjust="spacing" textLength="52" x="829" y="534.5352">content</text><line style="stroke:#181818;stroke-width:0.5;" x1="810" x2="886" y1="541.4883" y2="541.4883"/></g><!--class LeftBorder--><g id="elem_LeftBorder"><rect codeLine="25" fill="#F1F1F1" height="97.4648" id="LeftBorder" rx="2.5" ry="2.5" style="stroke:#181818;stroke-width:0.5;" width="109" x="656.5" y="659"/><ellipse cx="674.2" cy="675" fill="#ADD1B2" rx="11" ry="11" style="stroke:#181818;stroke-width:1.0;"/><path d="M676.6731,681.1431 Q676.0921,681.4419 675.4529,681.5913 Q674.8138,681.7407 674.1082,681.7407 Q671.6014,681.7407 670.2815,680.0889 Q668.9617,678.437 668.9617,675.3159 Q668.9617,672.1865 670.2815,670.5347 Q671.6014,668.8828 674.1082,668.8828 Q674.8138,668.8828 675.4612,669.0322 Q676.1087,669.1816 676.6731,669.4805 L676.6731,672.2031 Q676.0423,671.6221 675.4488,671.3523 Q674.8553,671.0825 674.2244,671.0825 Q672.8797,671.0825 672.1949,672.1492 Q671.5101,673.2158 671.5101,675.3159 Q671.5101,677.4077 672.1949,678.4744 Q672.8797,679.541 674.2244,679.541 Q674.8553,679.541 675.4488,679.2712 Q676.0423,679.0015 676.6731,678.4204 Z " fill="#000000"/><text fill="#000000" font-family="sans-serif" font-size="14" lengthAdjust="spacing" textLength="71" x="688.8" y="680.291">LeftBorder</text><line style="stroke:#181818;stroke-width:0.5;" x1="657.5" x2="764.5" y1="691" y2="691"/><line style="stroke:#181818;stroke-width:1.0;" x1="657.5" x2="764.5" y1="699" y2="699"/><ellipse cx="667.5" cy="712.7441" fill="none" rx="3" ry="3" style="stroke:#038048;stroke-width:1.0;"/><text fill="#000000" font-family="sans-serif" font-size="14" lengthAdjust="spacing" textLength="83" x="676.5" y="716.5352">getColumns</text><ellipse cx="667.5" cy="729.2324" fill="none" rx="3" ry="3" style="stroke:#038048;stroke-width:1.0;"/><text fill="#000000" font-family="sans-serif" font-size="14" lengthAdjust="spacing" textLength="58" x="676.5" y="733.0234">getRows</text><ellipse cx="667.5" cy="745.7207" fill="none" rx="3" ry="3" style="stroke:#038048;stroke-width:1.0;"/><text fill="#000000" font-family="sans-serif" font-size="14" lengthAdjust="spacing" textLength="82" x="676.5" y="749.5117">getRowText</text></g><!--class UpDownBorder--><g id="elem_UpDownBorder"><rect codeLine="32" fill="#F1F1F1" height="97.4648" id="UpDownBorder" rx="2.5" ry="2.5" style="stroke:#181818;stroke-width:0.5;" width="136" x="801" y="659"/><ellipse cx="816" cy="675" fill="#ADD1B2" rx="11" ry="11" style="stroke:#181818;stroke-width:1.0;"/><path d="M818.4731,681.1431 Q817.8921,681.4419 817.2529,681.5913 Q816.6138,681.7407 815.9082,681.7407 Q813.4014,681.7407 812.0815,680.0889 Q810.7617,678.437 810.7617,675.3159 Q810.7617,672.1865 812.0815,670.5347 Q813.4014,668.8828 815.9082,668.8828 Q816.6138,668.8828 817.2612,669.0322 Q817.9087,669.1816 818.4731,669.4805 L818.4731,672.2031 Q817.8423,671.6221 817.2488,671.3523 Q816.6553,671.0825 816.0244,671.0825 Q814.6797,671.0825 813.9949,672.1492 Q813.3101,673.2158 813.3101,675.3159 Q813.3101,677.4077 813.9949,678.4744 Q814.6797,679.541 816.0244,679.541 Q816.6553,679.541 817.2488,679.2712 Q817.8423,679.0015 818.4731,678.4204 Z " fill="#000000"/><text fill="#000000" font-family="sans-serif" font-size="14" lengthAdjust="spacing" textLength="104" x="830" y="680.291">UpDownBorder</text><line style="stroke:#181818;stroke-width:0.5;" x1="802" x2="936" y1="691" y2="691"/><line style="stroke:#181818;stroke-width:1.0;" x1="802" x2="936" y1="699" y2="699"/><ellipse cx="812" cy="712.7441" fill="none" rx="3" ry="3" style="stroke:#038048;stroke-width:1.0;"/><text fill="#000000" font-family="sans-serif" font-size="14" lengthAdjust="spacing" textLength="83" x="821" y="716.5352">getColumns</text><ellipse cx="812" cy="729.2324" fill="none" rx="3" ry="3" style="stroke:#038048;stroke-width:1.0;"/><text fill="#000000" font-family="sans-serif" font-size="14" lengthAdjust="spacing" textLength="58" x="821" y="733.0234">getRows</text><ellipse cx="812" cy="745.7207" fill="none" rx="3" ry="3" style="stroke:#038048;stroke-width:1.0;"/><text fill="#000000" font-family="sans-serif" font-size="14" lengthAdjust="spacing" textLength="82" x="821" y="749.5117">getRowText</text></g><!--class DecopyInputController--><g id="elem_DecopyInputController"><rect codeLine="42" fill="#F1F1F1" height="80.9766" id="DecopyInputController" rx="2.5" ry="2.5" style="stroke:#181818;stroke-width:0.5;" width="203" x="199.5" y="667"/><ellipse cx="221.25" cy="683" fill="#ADD1B2" rx="11" ry="11" style="stroke:#181818;stroke-width:1.0;"/><path d="M223.7231,689.1431 Q223.1421,689.4419 222.5029,689.5913 Q221.8638,689.7407 221.1582,689.7407 Q218.6514,689.7407 217.3315,688.0889 Q216.0117,686.437 216.0117,683.3159 Q216.0117,680.1865 217.3315,678.5347 Q218.6514,676.8828 221.1582,676.8828 Q221.8638,676.8828 222.5112,677.0322 Q223.1587,677.1816 223.7231,677.4805 L223.7231,680.2031 Q223.0923,679.6221 222.4988,679.3523 Q221.9053,679.0825 221.2744,679.0825 Q219.9297,679.0825 219.2449,680.1492 Q218.5601,681.2158 218.5601,683.3159 Q218.5601,685.4077 219.2449,686.4744 Q219.9297,687.541 221.2744,687.541 Q221.9053,687.541 222.4988,687.2712 Q223.0923,687.0015 223.7231,686.4204 Z " fill="#000000"/><text fill="#000000" font-family="sans-serif" font-size="14" lengthAdjust="spacing" textLength="156" x="236.75" y="688.291">DecopyInputController</text><line style="stroke:#181818;stroke-width:0.5;" x1="200.5" x2="401.5" y1="699" y2="699"/><line style="stroke:#181818;stroke-width:1.0;" x1="200.5" x2="401.5" y1="707" y2="707"/><ellipse cx="210.5" cy="720.7441" fill="none" rx="3" ry="3" style="stroke:#038048;stroke-width:1.0;"/><text fill="#000000" font-family="sans-serif" font-size="14" lengthAdjust="spacing" textLength="177" x="219.5" y="724.5352">displayDecopyInputFrame</text><ellipse cx="210.5" cy="737.2324" fill="none" rx="3" ry="3" style="stroke:#038048;stroke-width:1.0;"/><text fill="#000000" font-family="sans-serif" font-size="14" lengthAdjust="spacing" textLength="108" x="219.5" y="741.0234">getDecopyInput</text></g><!--class DecopyInputFrame--><g id="elem_DecopyInputFrame"><rect codeLine="48" fill="#F1F1F1" height="146.9297" id="DecopyInputFrame" rx="2.5" ry="2.5" style="stroke:#181818;stroke-width:0.5;" width="162" x="438" y="634"/><ellipse cx="453.45" cy="650" fill="#ADD1B2" rx="11" ry="11" style="stroke:#181818;stroke-width:1.0;"/><path d="M455.9231,656.1431 Q455.3421,656.4419 454.7029,656.5913 Q454.0638,656.7407 453.3582,656.7407 Q450.8514,656.7407 449.5315,655.0889 Q448.2117,653.437 448.2117,650.3159 Q448.2117,647.1865 449.5315,645.5347 Q450.8514,643.8828 453.3582,643.8828 Q454.0638,643.8828 454.7112,644.0322 Q455.3587,644.1816 455.9231,644.4805 L455.9231,647.2031 Q455.2923,646.6221 454.6988,646.3523 Q454.1053,646.0825 453.4744,646.0825 Q452.1297,646.0825 451.4449,647.1492 Q450.7601,648.2158 450.7601,650.3159 Q450.7601,652.4077 451.4449,653.4744 Q452.1297,654.541 453.4744,654.541 Q454.1053,654.541 454.6988,654.2712 Q455.2923,654.0015 455.9231,653.4204 Z " fill="#000000"/><text fill="#000000" font-family="sans-serif" font-size="14" lengthAdjust="spacing" textLength="129" x="467.55" y="655.291">DecopyInputFrame</text><line style="stroke:#181818;stroke-width:0.5;" x1="439" x2="599" y1="666" y2="666"/><rect fill="none" height="6" style="stroke:#C82930;stroke-width:1.0;" width="6" x="446" y="676.7441"/><text fill="#000000" font-family="sans-serif" font-size="14" lengthAdjust="spacing" textLength="119" x="458" y="683.5352">labelOfPlacement</text><rect fill="none" height="6" style="stroke:#C82930;stroke-width:1.0;" width="6" x="446" y="693.2324"/><text fill="#000000" font-family="sans-serif" font-size="14" lengthAdjust="spacing" textLength="116" x="458" y="700.0234">labelOfCharacter</text><rect fill="none" height="6" style="stroke:#C82930;stroke-width:1.0;" width="6" x="446" y="709.7207"/><text fill="#000000" font-family="sans-serif" font-size="14" lengthAdjust="spacing" textLength="130" x="458" y="716.5117">choiceOfPlacement</text><rect fill="none" height="6" style="stroke:#C82930;stroke-width:1.0;" width="6" x="446" y="726.209"/><text fill="#000000" font-family="sans-serif" font-size="14" lengthAdjust="spacing" textLength="136" x="458" y="733">textBoxOfCharacter</text><line style="stroke:#181818;stroke-width:1.0;" x1="439" x2="599" y1="739.9531" y2="739.9531"/><ellipse cx="449" cy="753.6973" fill="none" rx="3" ry="3" style="stroke:#038048;stroke-width:1.0;"/><text fill="#000000" font-family="sans-serif" font-size="14" lengthAdjust="spacing" textLength="75" x="458" y="757.4883">getDecoStr</text><ellipse cx="449" cy="770.1855" fill="none" rx="3" ry="3" style="stroke:#038048;stroke-width:1.0;"/><text fill="#000000" font-family="sans-serif" font-size="14" lengthAdjust="spacing" textLength="92" x="458" y="773.9766">getPlacement</text></g><!--class Frame--><g id="elem_Frame"><rect fill="#F1F1F1" height="48" id="Frame" rx="2.5" ry="2.5" style="stroke:#181818;stroke-width:0.5;" width="75" x="481.5" y="493"/><ellipse cx="496.5" cy="509" fill="#ADD1B2" rx="11" ry="11" style="stroke:#181818;stroke-width:1.0;"/><path d="M498.9731,515.1431 Q498.3921,515.4419 497.7529,515.5913 Q497.1138,515.7407 496.4082,515.7407 Q493.9014,515.7407 492.5815,514.0889 Q491.2617,512.437 491.2617,509.3159 Q491.2617,506.1865 492.5815,504.5347 Q493.9014,502.8828 496.4082,502.8828 Q497.1138,502.8828 497.7612,503.0322 Q498.4087,503.1816 498.9731,503.4805 L498.9731,506.2031 Q498.3423,505.6221 497.7488,505.3523 Q497.1553,505.0825 496.5244,505.0825 Q495.1797,505.0825 494.4949,506.1492 Q493.8101,507.2158 493.8101,509.3159 Q493.8101,511.4077 494.4949,512.4744 Q495.1797,513.541 496.5244,513.541 Q497.1553,513.541 497.7488,513.2712 Q498.3423,513.0015 498.9731,512.4204 Z " fill="#000000"/><text fill="#000000" font-family="sans-serif" font-size="14" lengthAdjust="spacing" textLength="43" x="510.5" y="514.291">Frame</text><line style="stroke:#181818;stroke-width:0.5;" x1="482.5" x2="555.5" y1="525" y2="525"/><line style="stroke:#181818;stroke-width:0.5;" x1="482.5" x2="555.5" y1="533" y2="533"/></g><!--class DecopyInput--><g id="elem_DecopyInput"><rect codeLine="58" fill="#F1F1F1" height="113.9531" id="DecopyInput" rx="2.5" ry="2.5" style="stroke:#181818;stroke-width:0.5;" width="118" x="46" y="650.5"/><ellipse cx="61" cy="666.5" fill="#ADD1B2" rx="11" ry="11" style="stroke:#181818;stroke-width:1.0;"/><path d="M63.4731,672.6431 Q62.8921,672.9419 62.2529,673.0913 Q61.6138,673.2407 60.9082,673.2407 Q58.4014,673.2407 57.0815,671.5889 Q55.7617,669.937 55.7617,666.8159 Q55.7617,663.6865 57.0815,662.0347 Q58.4014,660.3828 60.9082,660.3828 Q61.6138,660.3828 62.2612,660.5322 Q62.9087,660.6816 63.4731,660.9805 L63.4731,663.7031 Q62.8423,663.1221 62.2488,662.8523 Q61.6553,662.5825 61.0244,662.5825 Q59.6797,662.5825 58.9949,663.6492 Q58.3101,664.7158 58.3101,666.8159 Q58.3101,668.9077 58.9949,669.9744 Q59.6797,671.041 61.0244,671.041 Q61.6553,671.041 62.2488,670.7712 Q62.8423,670.5015 63.4731,669.9204 Z " fill="#000000"/><text fill="#000000" font-family="sans-serif" font-size="14" lengthAdjust="spacing" textLength="86" x="75" y="671.791">DecopyInput</text><line style="stroke:#181818;stroke-width:0.5;" x1="47" x2="163" y1="682.5" y2="682.5"/><rect fill="none" height="6" style="stroke:#C82930;stroke-width:1.0;" width="6" x="54" y="693.2441"/><text fill="#000000" font-family="sans-serif" font-size="14" lengthAdjust="spacing" textLength="71" x="66" y="700.0352">placement</text><rect fill="none" height="6" style="stroke:#C82930;stroke-width:1.0;" width="6" x="54" y="709.7324"/><text fill="#000000" font-family="sans-serif" font-size="14" lengthAdjust="spacing" textLength="74" x="66" y="716.5234">decoString</text><line style="stroke:#181818;stroke-width:1.0;" x1="47" x2="163" y1="723.4766" y2="723.4766"/><ellipse cx="57" cy="737.2207" fill="none" rx="3" ry="3" style="stroke:#038048;stroke-width:1.0;"/><text fill="#000000" font-family="sans-serif" font-size="14" lengthAdjust="spacing" textLength="39" x="66" y="741.0117">setter</text><ellipse cx="57" cy="753.709" fill="none" rx="3" ry="3" style="stroke:#038048;stroke-width:1.0;"/><text fill="#000000" font-family="sans-serif" font-size="14" lengthAdjust="spacing" textLength="41" x="66" y="757.5">getter</text></g><!--class ClipboardController--><g id="elem_ClipboardController"><rect codeLine="68" fill="#F1F1F1" height="80.9766" id="ClipboardController" rx="2.5" ry="2.5" style="stroke:#181818;stroke-width:0.5;" width="170" x="415" y="84"/><ellipse cx="430" cy="100" fill="#ADD1B2" rx="11" ry="11" style="stroke:#181818;stroke-width:1.0;"/><path d="M432.4731,106.1431 Q431.8921,106.4419 431.2529,106.5913 Q430.6138,106.7407 429.9082,106.7407 Q427.4014,106.7407 426.0815,105.0889 Q424.7617,103.437 424.7617,100.3159 Q424.7617,97.1865 426.0815,95.5347 Q427.4014,93.8828 429.9082,93.8828 Q430.6138,93.8828 431.2612,94.0322 Q431.9087,94.1816 432.4731,94.4805 L432.4731,97.2031 Q431.8423,96.6221 431.2488,96.3523 Q430.6553,96.0825 430.0244,96.0825 Q428.6797,96.0825 427.9949,97.1492 Q427.3101,98.2158 427.3101,100.3159 Q427.3101,102.4077 427.9949,103.4744 Q428.6797,104.541 430.0244,104.541 Q430.6553,104.541 431.2488,104.2712 Q431.8423,104.0015 432.4731,103.4204 Z " fill="#000000"/><text fill="#000000" font-family="sans-serif" font-size="14" lengthAdjust="spacing" textLength="138" x="444" y="105.291">ClipboardController</text><line style="stroke:#181818;stroke-width:0.5;" x1="416" x2="584" y1="116" y2="116"/><line style="stroke:#181818;stroke-width:1.0;" x1="416" x2="584" y1="124" y2="124"/><ellipse cx="426" cy="137.7441" fill="none" rx="3" ry="3" style="stroke:#038048;stroke-width:1.0;"/><text fill="#000000" font-family="sans-serif" font-size="14" lengthAdjust="spacing" text-decoration="underline" textLength="26" x="435" y="141.5352">pull</text><ellipse cx="426" cy="154.2324" fill="none" rx="3" ry="3" style="stroke:#038048;stroke-width:1.0;"/><text fill="#000000" font-family="sans-serif" font-size="14" lengthAdjust="spacing" text-decoration="underline" textLength="34" x="435" y="158.0234">push</text></g><!--reverse link Content to TextContent--><g id="link_Content_TextContent"><path d="M754.93,411.95 C748.88,427.71 742.51,444.31 736.68,459.51 " fill="none" id="Content-backto-TextContent" style="stroke:#181818;stroke-width:1.0;"/><polygon fill="none" points="748.37,409.49,762.07,393.32,761.44,414.5,748.37,409.49" style="stroke:#181818;stroke-width:1.0;"/></g><!--reverse link Content to Border--><g id="link_Content_Border"><path d="M795.08,412.24 C804.12,437.26 815.48,464.38 825.66,484.61 " fill="none" id="Content-backto-Border" style="stroke:#181818;stroke-width:1.0;"/><polygon fill="none" points="788.46,414.53,788.59,393.34,801.7,409.99,788.46,414.53" style="stroke:#181818;stroke-width:1.0;"/></g><!--link Content to Border--><g id="link_Content_Border"><path codeLine="84" d="M811.91,391.91 C823.24,416.56 834.82,446.43 842.41,470.69 " fill="none" id="Content-to-Border" style="stroke:#181818;stroke-width:1.0;"/><polygon fill="none" points="846.06,483.16,848.21,476.2769,842.6833,471.6449,840.5333,478.528,846.06,483.16" style="stroke:#181818;stroke-width:1.0;"/></g><!--reverse link Border to LeftBorder--><g id="link_Border_LeftBorder"><path d="M813.01,566.14 C792.37,594.55 766.34,630.36 745.74,658.7 " fill="none" id="Border-backto-LeftBorder" style="stroke:#181818;stroke-width:1.0;"/><polygon fill="none" points="807.07,562.41,824.49,550.35,818.39,570.65,807.07,562.41" style="stroke:#181818;stroke-width:1.0;"/></g><!--reverse link Border to UpDownBorder--><g id="link_Border_UpDownBorder"><path d="M853.82,570.23 C856.9,597.92 860.67,631.7 863.67,658.7 " fill="none" id="Border-backto-UpDownBorder" style="stroke:#181818;stroke-width:1.0;"/><polygon fill="none" points="846.89,571.28,851.64,550.63,860.81,569.73,846.89,571.28" style="stroke:#181818;stroke-width:1.0;"/></g><!--reverse link Frame to DecopyInputFrame--><g id="link_Frame_DecopyInputFrame"><path d="M519,562.74 C519,583.97 519,609.87 519,633.81 " fill="none" id="Frame-backto-DecopyInputFrame" style="stroke:#181818;stroke-width:1.0;"/><polygon fill="none" points="512,563.01,519,543.01,526,563.01,512,563.01" style="stroke:#181818;stroke-width:1.0;"/></g><!--reverse link ClipboardController to Decopy--><g id="link_ClipboardController_Decopy"><path codeLine="85" d="M500,171.95 C500,205.22 500,250.21 500,285.55 " fill="none" id="ClipboardController-backto-Decopy" style="stroke:#181818;stroke-width:1.0;stroke-dasharray:7.0,7.0;"/><polygon fill="#181818" points="500,166.98,496,175.98,500,171.98,504,175.98,500,166.98" style="stroke:#181818;stroke-width:1.0;"/></g><!--link Decopy to Content--><g id="link_Decopy_Content"><path codeLine="86" d="M557.35,343 C611.61,343 665.87,343 720.13,343 " fill="none" id="Decopy-to-Content" style="stroke:#181818;stroke-width:1.0;stroke-dasharray:7.0,7.0;"/><polygon fill="#181818" points="724.89,343,715.9015,338.9743,719.89,342.9857,715.8786,346.9743,724.89,343" style="stroke:#181818;stroke-width:1.0;"/></g><!--link Decopy to DecopyInputController--><g id="link_Decopy_DecopyInputController"><path codeLine="87" d="M469.12,400.24 C429.68,472.1 362.17,595.07 325.86,661.22 " fill="none" id="Decopy-to-DecopyInputController" style="stroke:#181818;stroke-width:1.0;stroke-dasharray:7.0,7.0;"/><polygon fill="#181818" points="323.6,665.33,331.4294,659.3551,326.0003,660.9438,324.4115,655.5146,323.6,665.33" style="stroke:#181818;stroke-width:1.0;"/></g><!--link DecopyInputController to DecopyInputFrame--><g id="link_DecopyInputController_DecopyInputFrame"><path codeLine="88" d="M402.76,707.5 C412.32,707.5 421.88,707.5 431.44,707.5 " fill="none" id="DecopyInputController-to-DecopyInputFrame" style="stroke:#181818;stroke-width:1.0;stroke-dasharray:7.0,7.0;"/><polygon fill="#181818" points="436.21,707.5,427.21,703.5,431.21,707.5,427.21,711.5,436.21,707.5" style="stroke:#181818;stroke-width:1.0;"/></g><!--reverse link DecopyInput to DecopyInputController--><g id="link_DecopyInput_DecopyInputController"><path codeLine="89" d="M170.84,707.5 C180.24,707.5 189.64,707.5 199.04,707.5 " fill="none" id="DecopyInput-backto-DecopyInputController" style="stroke:#181818;stroke-width:1.0;stroke-dasharray:7.0,7.0;"/><polygon fill="#181818" points="165.85,707.5,174.85,711.5,170.85,707.5,174.85,703.5,165.85,707.5" style="stroke:#181818;stroke-width:1.0;"/></g><!--SRC=[nLHBJiCm4Dtd59POiAZS8x1eAgHA82gW1t0TjurmOykUgAsYBDgk42l48JW0MmI7oKN8lsxYjAp0oYAPUJD-Rp8paj0dCcTeoAYGcyX1wHcNDbS4m090XJKxbuXoedNbkIL1YbCeYWr4baaH42hPloQxxsJ_cUm_KB9zov-NPFUCCCPr09bgK8J2SMRZpkmO-EpqK5I5nMZEm1KyN0Rw9EPUhCu27jaQQapirAy5jSnRqKjVMU1rqaLWPh8gwAHjvtgQOAE80w6yzBUS9dc1Q67lLdp3Pj38LNv6VoYku3AHGx4A_etDR_lxAzc-L-rTQf3bE4r61j52L35req26UMSfmVbvEPwl9ISR8_PQaILhgp0GtNLjfgbhctyr-vgJAUDtip4db2tDtZbokmkITIDJ3JTT29-oxl1iQWPYtPa0spK-W6exsdUSadxGYP5iHMBa5TVumToniEaXpS1acpCm3R6j8KBmUQibNExBgI3AipR4qQMH1W8-ZP4CERVRzS9EmIo0FJq-fF7rs5AIsaqL8y3o9MFrYn3C3ZGyeKxBKD9AYLLx2cDHJRPJKiIXxFUlRCMf4SgVBo07bMkjSdZftiZirc5px2DuoDOQiuu0dkxA1jvnVW00]--></g></svg>