<?xml version="1.0" encoding="UTF-8" standalone="no"?><svg xmlns="http://www.w3.org/2000/svg" xmlns:xlink="http://www.w3.org/1999/xlink" contentStyleType="text/css" height="420px" preserveAspectRatio="none" style="width:798px;height:420px;background:#FFFFFF;" version="1.1" viewBox="0 0 798 420" width="798px" zoomAndPan="magnify"><defs/><g><rect fill="none" height="27.6094" id="_title" style="stroke:none;stroke-width:1.0;" width="173" x="311.5" y="10"/><text fill="#000000" font-family="sans-serif" font-size="14" font-weight="bold" lengthAdjust="spacing" textLength="163" x="316.5" y="29.5332">Decopy main sequence</text><rect fill="#FFFFFF" height="60.3516" style="stroke:#181818;stroke-width:1.0;" width="10" x="76" y="153.5703"/><rect fill="#FFFFFF" height="181.4063" style="stroke:#181818;stroke-width:1.0;" width="10" x="266" y="183.9219"/><rect fill="#FFFFFF" height="60.7031" style="stroke:#181818;stroke-width:1.0;" width="10" x="443" y="244.2734"/><rect fill="#FFFFFF" height="69.3516" style="stroke:#181818;stroke-width:1.0;" width="10" x="580" y="335.3281"/><line style="stroke:#181818;stroke-width:0.5;stroke-dasharray:5.0,5.0;" x1="22" x2="22" y1="121.2188" y2="413.6797"/><line style="stroke:#181818;stroke-width:0.5;stroke-dasharray:5.0,5.0;" x1="81" x2="81" y1="121.2188" y2="413.6797"/><line style="stroke:#181818;stroke-width:0.5;stroke-dasharray:5.0,5.0;" x1="270.5" x2="270.5" y1="121.2188" y2="413.6797"/><line style="stroke:#181818;stroke-width:0.5;stroke-dasharray:5.0,5.0;" x1="448" x2="448" y1="121.2188" y2="413.6797"/><line style="stroke:#181818;stroke-width:0.5;stroke-dasharray:5.0,5.0;" x1="585" x2="585" y1="121.2188" y2="413.6797"/><line style="stroke:#181818;stroke-width:0.5;stroke-dasharray:5.0,5.0;" x1="723" x2="723" y1="121.2188" y2="413.6797"/><text fill="#000000" font-family="sans-serif" font-size="14" lengthAdjust="spacing" textLength="29" x="5" y="118.1426">User</text><ellipse cx="22.5" cy="52.1094" fill="#E2E2F0" rx="8" ry="8" style="stroke:#181818;stroke-width:0.5;"/><path d="M22.5,60.1094 L22.5,87.1094 M9.5,68.1094 L35.5,68.1094 M22.5,87.1094 L9.5,102.1094 M22.5,87.1094 L35.5,102.1094 " fill="none" style="stroke:#181818;stroke-width:0.5;"/><rect fill="#FFA07A" height="31.6094" rx="2.5" ry="2.5" style="stroke:#181818;stroke-width:0.5;" width="62" x="50" y="88.6094"/><text fill="#000000" font-family="sans-serif" font-size="14" lengthAdjust="spacing" textLength="48" x="57" y="110.1426">Decopy</text><rect fill="#FFFF00" height="31.6094" rx="2.5" ry="2.5" style="stroke:#181818;stroke-width:0.5;" width="155" x="193.5" y="88.6094"/><text fill="#000000" font-family="sans-serif" font-size="14" lengthAdjust="spacing" textLength="141" x="200.5" y="110.1426">DecopyInputController</text><rect fill="#FFFFE0" height="31.6094" rx="2.5" ry="2.5" style="stroke:#181818;stroke-width:0.5;" width="134" x="381" y="88.6094"/><text fill="#000000" font-family="sans-serif" font-size="14" lengthAdjust="spacing" textLength="120" x="388" y="110.1426">DecopyInputFrame</text><rect fill="#E0FFFF" height="31.6094" rx="2.5" ry="2.5" style="stroke:#181818;stroke-width:0.5;" width="120" x="525" y="88.6094"/><text fill="#000000" font-family="sans-serif" font-size="14" lengthAdjust="spacing" textLength="106" x="532" y="110.1426">ContentManager</text><rect fill="#E2E2F0" height="31.6094" rx="2.5" ry="2.5" style="stroke:#181818;stroke-width:0.5;" width="137" x="655" y="88.6094"/><text fill="#000000" font-family="sans-serif" font-size="14" lengthAdjust="spacing" textLength="123" x="662" y="110.1426">ClipboardController</text><rect fill="#FFFFFF" height="60.3516" style="stroke:#181818;stroke-width:1.0;" width="10" x="76" y="153.5703"/><rect fill="#FFFFFF" height="181.4063" style="stroke:#181818;stroke-width:1.0;" width="10" x="266" y="183.9219"/><rect fill="#FFFFFF" height="60.7031" style="stroke:#181818;stroke-width:1.0;" width="10" x="443" y="244.2734"/><rect fill="#FFFFFF" height="69.3516" style="stroke:#181818;stroke-width:1.0;" width="10" x="580" y="335.3281"/><polygon fill="#181818" points="64,149.5703,74,153.5703,64,157.5703,68,153.5703" style="stroke:#181818;stroke-width:1.0;"/><line style="stroke:#181818;stroke-width:1.0;" x1="22.5" x2="70" y1="153.5703" y2="153.5703"/><text fill="#000000" font-family="sans-serif" font-size="13" font-weight="bold" lengthAdjust="spacing" textLength="7" x="29.5" y="148.7139">1</text><text fill="#000000" font-family="sans-serif" font-size="13" lengthAdjust="spacing" textLength="18" x="40.5" y="148.7139">run</text><polygon fill="#181818" points="254,179.9219,264,183.9219,254,187.9219,258,183.9219" style="stroke:#181818;stroke-width:1.0;"/><line style="stroke:#181818;stroke-width:1.0;" x1="86" x2="260" y1="183.9219" y2="183.9219"/><text fill="#000000" font-family="sans-serif" font-size="13" font-weight="bold" lengthAdjust="spacing" textLength="7" x="93" y="179.0654">2</text><text fill="#000000" font-family="sans-serif" font-size="13" lengthAdjust="spacing" textLength="150" x="104" y="179.0654">displayDecopyInputFrame</text><polygon fill="#181818" points="431,240.2734,441,244.2734,431,248.2734,435,244.2734" style="stroke:#181818;stroke-width:1.0;"/><line style="stroke:#181818;stroke-width:1.0;" x1="276" x2="437" y1="244.2734" y2="244.2734"/><text fill="#000000" font-family="sans-serif" font-size="13" font-weight="bold" lengthAdjust="spacing" textLength="7" x="283" y="239.417">3</text><text fill="#000000" font-family="sans-serif" font-size="13" lengthAdjust="spacing" textLength="137" x="294" y="239.417">DecopyInputFrame(self)</text><polygon fill="#181818" points="431,270.625,441,274.625,431,278.625,435,274.625" style="stroke:#181818;stroke-width:1.0;"/><line style="stroke:#181818;stroke-width:1.0;" x1="22.5" x2="437" y1="274.625" y2="274.625"/><text fill="#000000" font-family="sans-serif" font-size="13" font-weight="bold" lengthAdjust="spacing" textLength="7" x="29.5" y="269.7686">4</text><text fill="#000000" font-family="sans-serif" font-size="13" lengthAdjust="spacing" textLength="95" x="40.5" y="269.7686">input information</text><polygon fill="#181818" points="287,300.9766,277,304.9766,287,308.9766,283,304.9766" style="stroke:#181818;stroke-width:1.0;"/><line style="stroke:#181818;stroke-width:1.0;" x1="281" x2="447" y1="304.9766" y2="304.9766"/><text fill="#000000" font-family="sans-serif" font-size="13" font-weight="bold" lengthAdjust="spacing" textLength="7" x="293" y="300.1201">5</text><text fill="#000000" font-family="sans-serif" font-size="13" lengthAdjust="spacing" textLength="94" x="304" y="300.1201">actionPerformed</text><polygon fill="#181818" points="568,331.3281,578,335.3281,568,339.3281,572,335.3281" style="stroke:#181818;stroke-width:1.0;"/><line style="stroke:#181818;stroke-width:1.0;" x1="276" x2="574" y1="335.3281" y2="335.3281"/><text fill="#000000" font-family="sans-serif" font-size="13" font-weight="bold" lengthAdjust="spacing" textLength="7" x="283" y="330.4717">6</text><text fill="#000000" font-family="sans-serif" font-size="13" lengthAdjust="spacing" textLength="118" x="294" y="330.4717">output(creatContent)</text><polygon fill="#181818" points="711.5,391.6797,721.5,395.6797,711.5,399.6797,715.5,395.6797" style="stroke:#181818;stroke-width:1.0;"/><line style="stroke:#181818;stroke-width:1.0;" x1="590" x2="717.5" y1="395.6797" y2="395.6797"/><text fill="#000000" font-family="sans-serif" font-size="13" font-weight="bold" lengthAdjust="spacing" textLength="7" x="597" y="390.8232">7</text><text fill="#000000" font-family="sans-serif" font-size="13" lengthAdjust="spacing" textLength="52" x="608" y="390.8232">pull/push</text><!--MD5=[6463dc289fb6d1092a837ffa81f516cb]
@startuml Decopy

title Decopy main sequence
hide footbox
autonumber

actor User as u
participant Decopy as d #LightSalmon
participant DecopyInputController as dic #Yellow
participant DecopyInputFrame as dif #LightYellow
participant ContentManager as cm #LightCyan
participant ClipboardController as cbc

u -> d: run
activate d
d -> dic: displayDecopyInputFrame
activate dic
deactivate d
dic -> dif: DecopyInputFrame(self)
activate dif
u -> dif: input information
dif -> dic: actionPerformed
deactivate dif
dic -> cm: output(creatContent)
activate cm
deactivate dic
cm -> cbc: pull/push

@enduml

PlantUML version 1.2022.7(Tue Aug 23 02:01:30 JST 2022)
(GPL source distribution)
Java Runtime: OpenJDK Runtime Environment
JVM: OpenJDK 64-Bit Server VM
Default Encoding: MS932
Language: ja
Country: JP
--></g></svg>