<?xml version="1.0" encoding="UTF-8" standalone="no"?><svg xmlns="http://www.w3.org/2000/svg" xmlns:xlink="http://www.w3.org/1999/xlink" contentStyleType="text/css" height="409px" preserveAspectRatio="none" style="width:865px;height:409px;background:#FFFFFF;" version="1.1" viewBox="0 0 865 409" width="865px" zoomAndPan="magnify"><defs/><g><text fill="#000000" font-family="sans-serif" font-size="14" font-weight="bold" lengthAdjust="spacing" textLength="183" x="340.25" y="27.9951">Decopy main sequence</text><rect fill="#FFFFFF" height="59.1328" style="stroke:#181818;stroke-width:1.0;" width="10" x="81.5" y="149.7266"/><rect fill="#FFFFFF" height="176.5313" style="stroke:#181818;stroke-width:1.0;" width="10" x="290.5" y="178.8594"/><rect fill="#FFFFFF" height="58.2656" style="stroke:#181818;stroke-width:1.0;" width="10" x="466.5" y="237.9922"/><rect fill="#FFFFFF" height="68.1328" style="stroke:#181818;stroke-width:1.0;" width="10" x="620" y="325.3906"/><line style="stroke:#181818;stroke-width:0.5;stroke-dasharray:5.0,5.0;" x1="23" x2="23" y1="118.5938" y2="402.5234"/><line style="stroke:#181818;stroke-width:0.5;stroke-dasharray:5.0,5.0;" x1="86" x2="86" y1="118.5938" y2="402.5234"/><line style="stroke:#181818;stroke-width:0.5;stroke-dasharray:5.0,5.0;" x1="295.5" x2="295.5" y1="118.5938" y2="402.5234"/><line style="stroke:#181818;stroke-width:0.5;stroke-dasharray:5.0,5.0;" x1="471.5" x2="471.5" y1="118.5938" y2="402.5234"/><line style="stroke:#181818;stroke-width:0.5;stroke-dasharray:5.0,5.0;" x1="624.5" x2="624.5" y1="118.5938" y2="402.5234"/><line style="stroke:#181818;stroke-width:0.5;stroke-dasharray:5.0,5.0;" x1="780.5" x2="780.5" y1="118.5938" y2="402.5234"/><text fill="#000000" font-family="sans-serif" font-size="14" lengthAdjust="spacing" textLength="31" x="5" y="115.292">User</text><ellipse cx="23.5" cy="50.7969" fill="#E2E2F0" rx="8" ry="8" style="stroke:#181818;stroke-width:0.5;"/><path d="M23.5,58.7969 L23.5,85.7969 M10.5,66.7969 L36.5,66.7969 M23.5,85.7969 L10.5,100.7969 M23.5,85.7969 L36.5,100.7969 " fill="none" style="stroke:#181818;stroke-width:0.5;"/><rect fill="#FFA07A" height="30.2969" rx="2.5" ry="2.5" style="stroke:#181818;stroke-width:0.5;" width="69" x="52" y="87.2969"/><text fill="#000000" font-family="sans-serif" font-size="14" lengthAdjust="spacing" textLength="55" x="59" y="107.292">Decopy</text><rect fill="#FFFF00" height="30.2969" rx="2.5" ry="2.5" style="stroke:#181818;stroke-width:0.5;" width="180" x="205.5" y="87.2969"/><text fill="#000000" font-family="sans-serif" font-size="14" lengthAdjust="spacing" textLength="166" x="212.5" y="107.292">DecopyInputController</text><rect fill="#FFFFE0" height="30.2969" rx="2.5" ry="2.5" style="stroke:#181818;stroke-width:0.5;" width="152" x="395.5" y="87.2969"/><text fill="#000000" font-family="sans-serif" font-size="14" lengthAdjust="spacing" textLength="138" x="402.5" y="107.292">DecopyInputFrame</text><rect fill="#E0FFFF" height="30.2969" rx="2.5" ry="2.5" style="stroke:#181818;stroke-width:0.5;" width="135" x="557.5" y="87.2969"/><text fill="#000000" font-family="sans-serif" font-size="14" lengthAdjust="spacing" textLength="121" x="564.5" y="107.292">ContentManager</text><rect fill="#E2E2F0" height="30.2969" rx="2.5" ry="2.5" style="stroke:#181818;stroke-width:0.5;" width="157" x="702.5" y="87.2969"/><text fill="#000000" font-family="sans-serif" font-size="14" lengthAdjust="spacing" textLength="143" x="709.5" y="107.292">ClipboardController</text><rect fill="#FFFFFF" height="59.1328" style="stroke:#181818;stroke-width:1.0;" width="10" x="81.5" y="149.7266"/><rect fill="#FFFFFF" height="176.5313" style="stroke:#181818;stroke-width:1.0;" width="10" x="290.5" y="178.8594"/><rect fill="#FFFFFF" height="58.2656" style="stroke:#181818;stroke-width:1.0;" width="10" x="466.5" y="237.9922"/><rect fill="#FFFFFF" height="68.1328" style="stroke:#181818;stroke-width:1.0;" width="10" x="620" y="325.3906"/><polygon fill="#181818" points="69.5,145.7266,79.5,149.7266,69.5,153.7266,73.5,149.7266" style="stroke:#181818;stroke-width:1.0;"/><line style="stroke:#181818;stroke-width:1.0;" x1="23.5" x2="75.5" y1="149.7266" y2="149.7266"/><text fill="#000000" font-family="sans-serif" font-size="13" font-weight="bold" lengthAdjust="spacing" textLength="9" x="30.5" y="144.6606">1</text><text fill="#000000" font-family="sans-serif" font-size="13" lengthAdjust="spacing" textLength="21" x="43.5" y="144.6606">run</text><polygon fill="#181818" points="278.5,174.8594,288.5,178.8594,278.5,182.8594,282.5,178.8594" style="stroke:#181818;stroke-width:1.0;"/><line style="stroke:#181818;stroke-width:1.0;" x1="91.5" x2="284.5" y1="178.8594" y2="178.8594"/><text fill="#000000" font-family="sans-serif" font-size="13" font-weight="bold" lengthAdjust="spacing" textLength="9" x="98.5" y="173.7935">2</text><text fill="#000000" font-family="sans-serif" font-size="13" lengthAdjust="spacing" textLength="167" x="111.5" y="173.7935">displayDecopyInputFrame</text><polygon fill="#181818" points="454.5,233.9922,464.5,237.9922,454.5,241.9922,458.5,237.9922" style="stroke:#181818;stroke-width:1.0;"/><line style="stroke:#181818;stroke-width:1.0;" x1="300.5" x2="460.5" y1="237.9922" y2="237.9922"/><text fill="#000000" font-family="sans-serif" font-size="13" font-weight="bold" lengthAdjust="spacing" textLength="8" x="307.5" y="232.9263">3</text><text fill="#000000" font-family="sans-serif" font-size="13" lengthAdjust="spacing" textLength="122" x="319.5" y="232.9263">DecopyInputFrame</text><polygon fill="#181818" points="454.5,263.125,464.5,267.125,454.5,271.125,458.5,267.125" style="stroke:#181818;stroke-width:1.0;"/><line style="stroke:#181818;stroke-width:1.0;" x1="23.5" x2="460.5" y1="267.125" y2="267.125"/><text fill="#000000" font-family="sans-serif" font-size="13" font-weight="bold" lengthAdjust="spacing" textLength="9" x="30.5" y="262.0591">4</text><text fill="#000000" font-family="sans-serif" font-size="13" lengthAdjust="spacing" textLength="110" x="43.5" y="262.0591">input information</text><polygon fill="#181818" points="311.5,292.2578,301.5,296.2578,311.5,300.2578,307.5,296.2578" style="stroke:#181818;stroke-width:1.0;"/><line style="stroke:#181818;stroke-width:1.0;" x1="305.5" x2="470.5" y1="296.2578" y2="296.2578"/><text fill="#000000" font-family="sans-serif" font-size="13" font-weight="bold" lengthAdjust="spacing" textLength="9" x="317.5" y="291.1919">5</text><text fill="#000000" font-family="sans-serif" font-size="13" lengthAdjust="spacing" textLength="107" x="330.5" y="291.1919">actionPerformed</text><polygon fill="#181818" points="608,321.3906,618,325.3906,608,329.3906,612,325.3906" style="stroke:#181818;stroke-width:1.0;"/><line style="stroke:#181818;stroke-width:1.0;" x1="300.5" x2="614" y1="325.3906" y2="325.3906"/><text fill="#000000" font-family="sans-serif" font-size="13" font-weight="bold" lengthAdjust="spacing" textLength="9" x="307.5" y="320.3247">6</text><text fill="#000000" font-family="sans-serif" font-size="13" lengthAdjust="spacing" textLength="136" x="320.5" y="320.3247">output(creatContent)</text><polygon fill="#181818" points="769,380.5234,779,384.5234,769,388.5234,773,384.5234" style="stroke:#181818;stroke-width:1.0;"/><line style="stroke:#181818;stroke-width:1.0;" x1="630" x2="775" y1="384.5234" y2="384.5234"/><text fill="#000000" font-family="sans-serif" font-size="13" font-weight="bold" lengthAdjust="spacing" textLength="9" x="637" y="379.4575">7</text><text fill="#000000" font-family="sans-serif" font-size="13" lengthAdjust="spacing" textLength="57" x="650" y="379.4575">pull/push</text><!--SRC=[VP0nJmCn38Nt_0fBNM10x3Um524XWLG9CJ3w75ylKXA7d0FSloTfhwA72ai6vttlFLkTUePx9aap17GH9dul78dDw2p38AAzV1aiAh64dhCnI2ePNYVEW1CKap2h8vSmwicfpYridjn-r1VqGU85qMDCHRSIDOltHo_h23PlxBry_WKyP0nyr0vBmWMWsNBKPuouFrfJMDJR6TTjjjwbNZ3RTHVgoPW2DtTWEyWbjhNT1og3DVOmTjJLPqeUvzy5pyIEZELpjkvue8SE_iE69RpfN5FKTv0SK5qzPzl-rA514dUSspVRLLorMG8fT215gz4LPKPTJdJzaqbXZPAfHsjaNqDIyVusbMdy1W00]--></g></svg>